<svg width="80" height="80" viewBox="0 0 80 80" fill="none" xmlns="http://www.w3.org/2000/svg">
<path d="M40 66.6668C56.5683 66.6668 70 50.0002 70 50.0002C70 50.0002 56.5683 33.3335 40 33.3335C23.4317 33.3335 10 50.0002 10 50.0002C10 50.0002 23.4317 66.6668 40 66.6668Z" stroke="black" stroke-width="4" stroke-linejoin="round"/>
<path d="M40.0002 56.6667C41.7683 56.6667 43.464 55.9643 44.7143 54.714C45.9645 53.4638 46.6669 51.7681 46.6669 50C46.6669 48.2319 45.9645 46.5362 44.7143 45.286C43.464 44.0357 41.7683 43.3333 40.0002 43.3333C38.2321 43.3333 36.5364 44.0357 35.2862 45.286C34.0359 46.5362 33.3336 48.2319 33.3336 50C33.3336 51.7681 34.0359 53.4638 35.2862 54.714C36.5364 55.9643 38.2321 56.6667 40.0002 56.6667ZM46.6669 10C35.0002 10 16.6669 15.8333 11.6669 20C6.66689 24.1667 10.0002 31.6667 13.3336 30C16.6669 28.3333 38.6669 20.3333 46.6669 18.3333C54.6669 16.3333 66.1119 19.7217 70.0002 21.6667C66.1119 18.3333 58.3336 10 46.6669 10Z" stroke="black" stroke-width="4" stroke-linejoin="round"/>
</svg>
