<svg width="80" height="80" viewBox="0 0 80 80" fill="none" xmlns="http://www.w3.org/2000/svg">
<path d="M7.43359 21.4001L37.0586 15.1034C37.4871 15.0125 37.9294 15.0068 38.36 15.0869C38.7907 15.167 39.2014 15.3312 39.5686 15.5701L53.0653 24.3351C53.8066 24.8166 54.7089 24.9838 55.5736 24.8001L62.3753 23.3534C63.2399 23.1696 64.142 23.3368 64.8834 23.8181C65.6248 24.2995 66.1446 25.0555 66.3286 25.9201L67.3686 30.8117C67.5524 31.6763 67.3852 32.5785 66.9039 33.3199C66.4226 34.0613 65.6665 34.5811 64.8019 34.7651L53.1103 37.2501C52.6818 37.3413 52.2397 37.3472 51.809 37.2674C51.3783 37.1876 50.9676 37.0237 50.6003 36.7851L37.1036 28.0201C36.7363 27.7815 36.3256 27.6176 35.8949 27.5378C35.4642 27.458 35.022 27.4639 34.5936 27.5551L29.4236 28.6551M72.5669 55.2667L42.9419 61.5617C42.5135 61.653 42.0713 61.6588 41.6407 61.579C41.21 61.4993 40.7992 61.3354 40.4319 61.0967L26.9353 52.3301C26.5678 52.0917 26.157 51.9282 25.7264 51.8487C25.2957 51.7692 24.8536 51.7753 24.4253 51.8667L17.6253 53.3117C16.7607 53.4955 15.8585 53.3284 15.1171 52.847C14.3757 52.3657 13.8559 51.6096 13.6719 50.7451L12.6319 45.8534C12.4482 44.9888 12.6153 44.0866 13.0966 43.3453C13.578 42.6039 14.334 42.0841 15.1986 41.9001L26.8903 39.4167C27.3186 39.3253 27.7607 39.3192 28.1914 39.3987C28.622 39.4782 29.0328 39.6417 29.4003 39.8801L42.8969 48.6467C43.2642 48.8854 43.675 49.0493 44.1057 49.129C44.5363 49.2088 44.9785 49.2029 45.4069 49.1117L50.5769 48.0117" stroke="black" stroke-width="4" stroke-linecap="round"/>
</svg>
