<svg width="80" height="80" viewBox="0 0 80 80" fill="none" xmlns="http://www.w3.org/2000/svg">
<path d="M54.1417 40.8082C56.0017 38.9532 57.4767 36.7489 58.4821 34.322C59.4875 31.8951 60.0033 29.2934 60 26.6665C60 15.6215 51.045 6.6665 40 6.6665C28.955 6.6665 20 15.6215 20 26.6665C20 32.1898 22.2383 37.1898 25.8583 40.8082" stroke="black" stroke-width="4" stroke-linecap="round"/>
<path d="M10 73.3332L11.6667 64.9998L30 51.6665L40 61.6665L50 51.6665L68.3333 64.9998L70 73.3332" stroke="black" stroke-width="4" stroke-linecap="round" stroke-linejoin="round"/>
<path d="M21.6553 35.0113C21.6769 28.1613 22.7919 23.1563 25.0003 19.9996C28.3136 15.2646 30.6453 15.6129 32.3419 16.3496C34.0403 17.0879 35.0386 21.9063 37.8736 23.2963C40.7069 24.6846 47.9636 24.8563 50.4486 26.5279C52.9319 28.1979 58.6153 31.3063 57.1986 36.6129" stroke="black" stroke-width="4"/>
</svg>
