<svg width="80" height="80" viewBox="0 0 80 80" fill="none" xmlns="http://www.w3.org/2000/svg">
<path d="M68.333 8.3335H11.6663C9.82539 8.3335 8.33301 9.82588 8.33301 11.6668V38.3335C8.33301 40.1744 9.82539 41.6668 11.6663 41.6668H68.333C70.174 41.6668 71.6663 40.1744 71.6663 38.3335V11.6668C71.6663 9.82588 70.174 8.3335 68.333 8.3335Z" stroke="black" stroke-width="4" stroke-linecap="round" stroke-linejoin="round"/>
<path d="M23.333 8.3335V41.6668M56.6663 8.3335V41.6668M49.9997 8.3335H63.333M8.33301 18.3335H71.6663M8.33301 31.6668H71.6663M8.33301 35.0002V15.0002M71.6663 35.0002V15.0002M16.6663 8.3335H29.9997M49.9997 41.6668H63.333M16.6663 41.6668H29.9997M53.333 41.6668C53.333 45.2031 51.9282 48.5944 49.4278 51.0949C46.9273 53.5954 43.5359 55.0002 39.9997 55.0002C36.4635 55.0002 33.0721 53.5954 30.5716 51.0949C28.0711 48.5944 26.6663 45.2031 26.6663 41.6668" stroke="black" stroke-width="4" stroke-linecap="round" stroke-linejoin="round"/>
<path d="M46.6663 53.3335L44.9997 61.6668V73.3335M33.333 53.3335L34.9997 61.6668V73.3335" stroke="black" stroke-width="4" stroke-linecap="round" stroke-linejoin="round"/>
</svg>
