<svg width="1006" height="1006" viewBox="0 0 1006 1006" fill="none" xmlns="http://www.w3.org/2000/svg">
<path fill-rule="evenodd" clip-rule="evenodd" d="M515.499 1391.26C482.53 1400.43 449.665 1409.57 408.043 1451.74L406.969 1450.68C448.87 1408.22 482.04 1399 515.104 1389.81L515.113 1389.8C548.082 1380.64 580.947 1371.5 622.569 1329.33C664.195 1287.15 672.898 1254.17 681.629 1221.08L681.629 1221.08C690.384 1187.9 699.166 1154.62 741.055 1112.17C782.945 1069.73 816.114 1060.5 849.182 1051.31L849.183 1051.31C882.158 1042.14 915.03 1033 956.656 990.819C998.279 948.645 1006.98 915.663 1015.72 882.576L1015.72 882.568C1024.48 849.385 1033.26 816.097 1075.17 773.642C1117.07 731.186 1150.24 721.961 1183.3 712.765L1183.31 712.764C1216.28 703.594 1249.15 694.452 1290.79 652.263C1332.43 610.075 1341.13 577.091 1349.86 544.005L1349.86 544.003C1358.62 510.824 1367.4 477.542 1409.3 435.087L1410.37 436.147C1368.76 478.317 1360.05 511.291 1351.33 544.373L1351.32 544.388C1342.57 577.568 1333.78 610.856 1291.86 653.323C1249.95 695.791 1216.78 705.022 1183.71 714.219L1183.69 714.223C1150.72 723.392 1117.86 732.531 1076.24 774.702C1034.62 816.875 1025.91 849.857 1017.18 882.944L1017.18 882.953C1008.42 916.135 999.632 949.423 957.73 991.879C915.829 1034.33 882.653 1043.57 849.586 1052.76L849.57 1052.77C816.6 1061.94 783.737 1071.07 742.129 1113.23C700.522 1155.39 691.821 1188.37 683.092 1221.45L683.088 1221.46C674.333 1254.64 665.545 1287.93 623.643 1330.39C581.742 1372.84 548.573 1382.07 515.508 1391.26L515.499 1391.26Z" fill="#A0A3BD"/>
<path fill-rule="evenodd" clip-rule="evenodd" d="M-434.049 438.487C-467.019 447.653 -499.883 456.791 -541.506 498.964L-542.58 497.904C-500.679 455.449 -467.509 446.224 -434.445 437.03L-434.436 437.028C-401.467 427.861 -368.602 418.724 -326.979 376.55C-285.354 334.374 -276.651 301.39 -267.92 268.304L-267.92 268.302C-259.165 235.123 -250.383 201.841 -208.493 159.398C-166.604 116.954 -133.435 107.729 -100.367 98.5329L-100.366 98.5325C-67.391 89.3621 -34.5183 80.2201 7.10731 38.0438C48.73 -4.12955 57.4349 -37.1118 66.1676 -70.1987L66.1698 -70.2073C74.9276 -103.39 83.716 -136.677 125.617 -179.133C167.519 -221.589 200.688 -230.814 233.756 -240.01L233.757 -240.011C266.732 -249.181 299.604 -258.323 341.242 -300.511C382.88 -342.7 391.583 -375.684 400.313 -408.77L400.314 -408.772C409.068 -441.951 417.851 -475.233 459.752 -517.688L460.826 -516.628C419.206 -474.458 410.506 -441.484 401.777 -408.402L401.773 -408.387C393.018 -375.207 384.229 -341.919 342.316 -299.451C300.403 -256.984 267.227 -247.752 234.16 -238.556L234.144 -238.552C201.174 -229.383 168.311 -220.243 126.691 -178.073C85.0687 -135.9 76.3638 -102.918 67.6312 -69.831L67.6288 -69.8221C58.871 -36.6398 50.0827 -3.35197 8.18131 39.1037C-33.7201 81.5595 -66.8954 90.7906 -99.9629 99.9868L-99.9788 99.9912C-132.949 109.16 -165.812 118.3 -207.419 160.458C-249.027 202.616 -257.728 235.59 -266.457 268.671L-266.461 268.687C-275.216 301.867 -284.004 335.155 -325.905 377.61C-367.807 420.066 -400.976 429.291 -434.041 438.484L-434.049 438.487Z" fill="#A0A3BD"/>
<path fill-rule="evenodd" clip-rule="evenodd" d="M172.677 1035.4C139.708 1044.56 106.843 1053.7 65.2205 1095.87L64.1465 1094.81C106.048 1052.36 139.217 1043.13 172.282 1033.94L172.29 1033.94C205.26 1024.77 238.125 1015.63 279.747 973.459C321.373 931.283 330.076 898.299 338.806 865.213L338.807 865.211C347.561 832.032 356.344 798.75 398.233 756.306C440.123 713.863 473.292 704.638 506.359 695.442L506.361 695.441C539.336 686.271 572.208 677.129 613.834 634.952C655.457 592.779 664.161 559.797 672.894 526.71L672.896 526.701C681.654 493.519 690.443 460.231 732.344 417.776C774.245 375.32 807.415 366.095 840.482 356.899L840.484 356.898C873.458 347.728 906.331 338.586 947.969 296.397C989.606 254.209 998.309 221.225 1007.04 188.139L1007.04 188.137C1015.79 154.958 1024.58 121.676 1066.48 79.2203L1067.55 80.2803C1025.93 122.451 1017.23 155.425 1008.5 188.506L1008.5 188.522C999.744 221.701 990.956 254.989 949.043 297.457C907.129 339.925 873.954 349.156 840.886 358.352L840.871 358.357C807.901 367.526 775.038 376.665 733.418 418.836C691.795 461.009 683.09 493.991 674.358 527.078L674.355 527.087C665.598 560.269 656.809 593.557 614.908 636.012C573.007 678.468 539.831 687.699 506.764 696.896L506.748 696.9C473.778 706.069 440.915 715.208 399.307 757.366C357.7 799.524 348.999 832.499 340.27 865.58L340.266 865.596C331.511 898.775 322.723 932.063 280.821 974.519C238.92 1016.97 205.75 1026.2 172.686 1035.39L172.677 1035.4Z" fill="#A0A3BD"/>
<path fill-rule="evenodd" clip-rule="evenodd" d="M-135.252 731.89C-168.221 741.056 -201.086 750.194 -242.708 792.367L-243.782 791.307C-201.881 748.851 -168.711 739.626 -135.647 730.433L-135.638 730.431C-102.669 721.264 -69.8042 712.126 -28.1815 669.953C13.4441 627.777 22.1473 594.793 30.8775 561.707L30.878 561.705C39.6328 528.526 48.4151 495.244 90.3045 452.801C132.194 410.357 165.363 401.132 198.431 391.936L198.432 391.935C231.407 382.765 264.28 373.623 305.905 331.447C347.528 289.273 356.233 256.291 364.965 223.204L364.968 223.196C373.725 190.013 382.514 156.725 424.415 114.27C466.317 71.814 499.486 62.5889 532.553 53.3927L532.555 53.3923C565.53 44.2219 598.402 35.0799 640.04 -7.10864C681.677 -49.297 690.381 -82.2808 699.111 -115.367L699.111 -115.369C707.866 -148.548 716.649 -181.83 758.55 -224.286L759.624 -223.226C718.004 -181.055 709.304 -148.081 700.575 -115L700.57 -114.984C691.816 -81.8044 683.027 -48.5165 641.114 -6.04866C599.201 36.4192 566.025 45.6504 532.958 54.8466L532.942 54.851C499.972 64.02 467.109 73.1594 425.489 115.33C383.867 157.503 375.162 190.485 366.429 223.572L366.427 223.581C357.669 256.763 348.881 290.051 306.979 332.507C265.078 374.962 231.902 384.193 198.835 393.39L198.819 393.394C165.849 402.563 132.986 411.702 91.3785 453.861C49.7709 496.019 41.0702 528.993 32.3412 562.074L32.337 562.09C23.5822 595.27 14.7938 628.557 -27.1075 671.013C-69.0089 713.469 -102.178 722.694 -135.243 731.887L-135.252 731.89Z" fill="#A0A3BD"/>
<path fill-rule="evenodd" clip-rule="evenodd" d="M470.266 1337.75C437.297 1346.92 404.432 1356.06 362.809 1398.23L361.735 1397.17C403.637 1354.71 436.806 1345.49 469.871 1336.3L469.879 1336.29C502.848 1327.13 535.713 1317.99 577.336 1275.82C618.962 1233.64 627.665 1200.66 636.395 1167.57L636.396 1167.57C645.15 1134.39 653.933 1101.11 695.822 1058.66C737.711 1016.22 770.881 1006.99 803.948 997.799L803.95 997.798C836.924 988.628 869.797 979.486 911.423 937.31C953.045 895.136 961.75 862.154 970.483 829.067L970.485 829.059C979.243 795.876 988.031 762.588 1029.93 720.133C1071.83 677.677 1105 668.452 1138.07 659.256L1138.07 659.255C1171.05 650.085 1203.92 640.943 1245.56 598.754C1287.19 556.566 1295.9 523.582 1304.63 490.496L1304.63 490.494C1313.38 457.315 1322.17 424.033 1364.07 381.577L1365.14 382.637C1323.52 424.808 1314.82 457.782 1306.09 490.863L1306.09 490.879C1297.33 524.059 1288.54 557.347 1246.63 599.814C1204.72 642.282 1171.54 651.513 1138.48 660.71L1138.46 660.714C1105.49 669.883 1072.63 679.022 1031.01 721.193C989.384 763.366 980.679 796.348 971.947 829.435L971.944 829.444C963.186 862.626 954.398 895.914 912.497 938.37C870.595 980.825 837.42 990.056 804.353 999.253L804.337 999.257C771.367 1008.43 738.504 1017.57 696.896 1059.72C655.288 1101.88 646.588 1134.86 637.859 1167.94L637.855 1167.95C629.1 1201.13 620.311 1234.42 578.41 1276.88C536.509 1319.33 503.339 1328.56 470.275 1337.75L470.266 1337.75Z" fill="#A0A3BD"/>
<path fill-rule="evenodd" clip-rule="evenodd" d="M-287.218 594.733C-320.187 603.9 -353.052 613.038 -394.675 655.211L-395.749 654.151C-353.848 611.695 -320.678 602.47 -287.614 593.277L-287.605 593.275C-254.636 584.108 -221.771 574.97 -180.148 532.797C-138.523 490.621 -129.819 457.637 -121.089 424.551L-121.089 424.549C-112.334 391.37 -103.552 358.088 -61.6623 315.644C-19.7729 273.201 13.3965 263.976 46.4639 254.78L46.4655 254.779C79.44 245.609 112.313 236.467 153.938 194.29C195.561 152.117 204.266 119.135 212.999 86.0479L213.001 86.0393C221.759 52.8569 230.547 19.5691 272.448 -22.8866C314.35 -65.3423 347.519 -74.5673 380.587 -83.7635L380.588 -83.764C413.563 -92.9344 446.435 -102.076 488.073 -144.265C529.711 -186.453 538.414 -219.437 547.144 -252.523L547.145 -252.525C555.899 -285.704 564.682 -318.986 606.583 -361.442L607.657 -360.382C566.038 -318.212 557.337 -285.237 548.608 -252.156L548.604 -252.14C539.849 -218.961 531.06 -185.673 489.147 -143.205C447.234 -100.737 414.058 -91.5059 380.991 -82.3096L380.975 -82.3052C348.005 -73.1362 315.142 -63.9969 273.522 -21.8266C231.9 20.3467 223.195 53.3288 214.462 86.4155L214.46 86.4245C205.702 119.607 196.914 152.895 155.012 195.35C113.111 237.806 79.9356 247.037 46.8681 256.233L46.8523 256.238C13.8825 265.407 -18.9807 274.546 -60.5883 316.704C-102.196 358.862 -110.897 391.837 -119.626 424.918L-119.63 424.934C-128.385 458.113 -137.173 491.401 -179.074 533.857C-220.976 576.313 -254.145 585.538 -287.21 594.731L-287.218 594.733Z" fill="#A0A3BD"/>
<path fill-rule="evenodd" clip-rule="evenodd" d="M318.3 1190.64C285.331 1199.8 252.466 1208.94 210.844 1251.11L209.77 1250.05C251.671 1207.6 284.84 1198.37 317.905 1189.18L317.914 1189.18C350.883 1180.01 383.748 1170.87 425.37 1128.7C466.996 1086.52 475.699 1053.54 484.429 1020.45L484.43 1020.45C493.185 987.273 501.967 953.991 543.856 911.548C585.746 869.104 618.915 859.879 651.982 850.683L651.984 850.683C684.959 841.512 717.831 832.37 759.457 790.194C801.08 748.021 809.785 715.038 818.517 681.951L818.519 681.943C827.277 648.76 836.066 615.473 877.967 573.017C919.868 530.561 953.038 521.336 986.105 512.14L986.107 512.14C1019.08 502.969 1051.95 493.827 1093.59 451.639C1135.23 409.45 1143.93 376.467 1152.66 343.381L1152.66 343.379C1161.42 310.199 1170.2 276.917 1212.1 234.462L1213.18 235.522C1171.56 277.692 1162.86 310.666 1154.13 343.748L1154.12 343.764C1145.37 376.943 1136.58 410.231 1094.67 452.699C1052.75 495.167 1019.58 504.398 986.509 513.594L986.494 513.598C953.524 522.767 920.661 531.907 879.041 574.077C837.418 616.25 828.713 649.232 819.981 682.319L819.978 682.328C811.221 715.51 802.432 748.798 760.531 791.254C718.63 833.71 685.454 842.941 652.387 852.137L652.371 852.141C619.401 861.31 586.538 870.45 544.93 912.608C503.323 954.766 494.622 987.74 485.893 1020.82L485.889 1020.84C477.134 1054.02 468.346 1087.3 426.444 1129.76C384.543 1172.22 351.373 1181.44 318.309 1190.63L318.3 1190.64Z" fill="#A0A3BD"/>
<path fill-rule="evenodd" clip-rule="evenodd" d="M11.5776 888.138C-21.3916 897.304 -54.2565 906.442 -95.8791 948.615L-96.9531 947.555C-55.0518 905.099 -21.8823 895.874 11.1821 886.681L11.1909 886.679C44.16 877.512 77.0249 868.374 118.648 826.201C160.273 784.025 168.976 751.041 177.707 717.955L177.707 717.953C186.462 684.774 195.244 651.492 237.134 609.049C279.023 566.605 312.192 557.38 345.26 548.184L345.261 548.183C378.236 539.013 411.109 529.871 452.734 487.695C494.357 445.521 503.062 412.539 511.795 379.452L511.797 379.444C520.555 346.261 529.343 312.973 571.244 270.518C613.146 228.062 646.315 218.837 679.382 209.641L679.384 209.64C712.359 200.47 745.231 191.328 786.869 149.139C828.507 106.951 837.21 73.9672 845.94 40.8813L845.941 40.8793C854.695 7.69993 863.478 -25.5818 905.379 -68.0375L906.453 -66.9775C864.833 -24.8073 856.133 8.16713 847.404 41.2485L847.4 41.2643C838.645 74.4437 829.856 107.732 787.943 150.199C746.03 192.667 712.854 201.898 679.787 211.095L679.771 211.099C646.801 220.268 613.938 229.407 572.318 271.578C530.696 313.751 521.991 346.733 513.258 379.82L513.256 379.829C504.498 413.011 495.71 446.299 453.808 488.755C411.907 531.21 378.732 540.441 345.664 549.638L345.648 549.642C312.678 558.811 279.815 567.951 238.208 610.109C196.6 652.267 187.899 685.241 179.17 718.322L179.166 718.338C170.411 751.518 161.623 784.805 119.722 827.261C77.8202 869.717 44.6508 878.942 11.5863 888.135L11.5776 888.138Z" fill="#A0A3BD"/>
<path fill-rule="evenodd" clip-rule="evenodd" d="M617.097 1494C584.128 1503.17 551.263 1512.3 509.64 1554.48L508.566 1553.42C550.468 1510.96 583.637 1501.74 616.702 1492.54L616.71 1492.54C649.68 1483.37 682.544 1474.24 724.167 1432.06C765.793 1389.89 774.496 1356.9 783.226 1323.82L783.227 1323.82C791.981 1290.64 800.764 1257.35 842.653 1214.91C884.542 1172.47 917.712 1163.24 950.779 1154.05L950.781 1154.05C983.755 1144.88 1016.63 1135.73 1058.25 1093.56C1099.88 1051.38 1108.58 1018.4 1117.31 985.315L1117.32 985.306C1126.07 952.124 1134.86 918.836 1176.76 876.381C1218.67 833.925 1251.83 824.7 1284.9 815.504L1284.9 815.503C1317.88 806.333 1350.75 797.191 1392.39 755.002C1434.03 712.814 1442.73 679.83 1451.46 646.744L1451.46 646.742C1460.21 613.563 1469 580.281 1510.9 537.825L1511.97 538.885C1470.35 581.056 1461.65 614.03 1452.92 647.111L1452.92 647.127C1444.16 680.306 1435.38 713.594 1393.46 756.062C1351.55 798.53 1318.37 807.761 1285.31 816.957L1285.29 816.962C1252.32 826.131 1219.46 835.27 1177.84 877.441C1136.22 919.614 1127.51 952.596 1118.78 985.683L1118.78 985.692C1110.02 1018.87 1101.23 1052.16 1059.33 1094.62C1017.43 1137.07 984.251 1146.3 951.184 1155.5L951.168 1155.5C918.198 1164.67 885.335 1173.81 843.727 1215.97C802.12 1258.13 793.419 1291.1 784.69 1324.19L784.686 1324.2C775.931 1357.38 767.142 1390.67 725.241 1433.12C683.34 1475.58 650.17 1484.8 617.106 1494L617.097 1494Z" fill="#A0A3BD"/>
<path fill-rule="evenodd" clip-rule="evenodd" d="M-454.344 410.819C-487.313 419.985 -520.178 429.123 -561.801 471.296L-562.875 470.236C-520.974 427.781 -487.804 418.556 -454.74 409.362L-454.731 409.36C-421.762 400.193 -388.897 391.056 -347.274 348.882C-305.649 306.706 -296.945 273.722 -288.215 240.636L-288.215 240.634C-279.46 207.455 -270.678 174.173 -228.788 131.73C-186.899 89.2862 -153.729 80.0611 -120.662 70.865L-120.661 70.8645C-87.686 61.6941 -54.8133 52.5521 -13.1876 10.3758C28.435 -31.7975 37.14 -64.7797 45.8727 -97.8666L45.8749 -97.8752C54.6327 -131.058 63.4211 -164.345 105.322 -206.801C147.224 -249.257 180.393 -258.482 213.461 -267.678L213.462 -267.679C246.437 -276.849 279.309 -285.991 320.947 -328.179C362.585 -370.368 371.288 -403.352 380.018 -436.438L380.019 -436.44C388.773 -469.619 397.556 -502.901 439.457 -545.356L440.531 -544.296C398.912 -502.126 390.211 -469.152 381.482 -436.07L381.478 -436.055C372.723 -402.875 363.935 -369.587 322.021 -327.119C280.108 -284.652 246.932 -275.42 213.865 -266.224L213.849 -266.22C180.879 -257.051 148.016 -247.911 106.396 -205.741C64.7738 -163.568 56.0688 -130.586 47.3362 -97.499L47.3339 -97.4901C38.5761 -64.3078 29.7878 -31.0199 -12.1136 11.4358C-54.015 53.8915 -87.1904 63.1226 -120.258 72.3188L-120.274 72.3233C-153.243 81.4922 -186.107 90.6317 -227.714 132.79C-269.322 174.948 -278.023 207.922 -286.752 241.003L-286.756 241.019C-295.511 274.199 -304.299 307.487 -346.2 349.942C-388.102 392.398 -421.271 401.623 -454.336 410.816L-454.344 410.819Z" fill="#A0A3BD"/>
<path fill-rule="evenodd" clip-rule="evenodd" d="M152.381 1007.73C119.412 1016.9 86.5472 1026.03 44.9246 1068.21L43.8506 1067.15C85.752 1024.69 118.921 1015.47 151.986 1006.27L151.995 1006.27C184.964 997.103 217.829 987.965 259.451 945.792C301.077 903.616 309.78 870.632 318.51 837.546L318.511 837.544C327.266 804.365 336.048 771.083 377.937 728.639C419.827 686.196 452.996 676.971 486.063 667.775L486.065 667.774C519.04 658.604 551.912 649.462 593.538 607.285C635.161 565.112 643.866 532.13 652.598 499.043L652.6 499.034C661.358 465.852 670.147 432.564 712.048 390.109C753.949 347.653 787.119 338.428 820.186 329.232L820.188 329.231C853.162 320.061 886.035 310.919 927.673 268.73C969.31 226.542 978.013 193.558 986.744 160.472L986.744 160.47C995.499 127.291 1004.28 94.009 1046.18 51.5533L1047.26 52.6133C1005.64 94.7835 996.936 127.758 988.207 160.839L988.203 160.855C979.448 194.034 970.66 227.322 928.747 269.79C886.833 312.258 853.658 321.489 820.59 330.685L820.575 330.69C787.605 339.859 754.742 348.998 713.122 391.169C671.499 433.342 662.794 466.324 654.062 499.411L654.059 499.42C645.302 532.602 636.513 565.89 594.612 608.345C552.711 650.801 519.535 660.032 486.468 669.229L486.452 669.233C453.482 678.402 420.619 687.541 379.011 729.699C337.404 771.857 328.703 804.832 319.974 837.913L319.97 837.929C311.215 871.108 302.427 904.396 260.525 946.852C218.624 989.308 185.454 998.533 152.39 1007.73L152.381 1007.73Z" fill="#A0A3BD"/>
<path fill-rule="evenodd" clip-rule="evenodd" d="M-155.548 704.222C-188.518 713.388 -221.382 722.526 -263.005 764.699L-264.079 763.639C-222.178 721.184 -189.008 711.959 -155.944 702.765L-155.935 702.763C-122.966 693.596 -90.101 684.459 -48.4784 642.285C-6.85278 600.109 1.85044 567.125 10.5807 534.039L10.5811 534.037C19.3359 500.858 28.1182 467.576 70.0076 425.133C111.897 382.689 145.066 373.464 178.134 364.268L178.135 364.268C211.11 355.097 243.983 345.955 285.608 303.779C327.231 261.606 335.936 228.623 344.669 195.536L344.671 195.528C353.429 162.345 362.217 129.058 404.118 86.602C446.02 44.1462 479.189 34.9212 512.257 25.725L512.258 25.7246C545.233 16.5542 578.105 7.41219 619.743 -34.7764C661.381 -76.9647 670.084 -109.949 678.814 -143.035L678.815 -143.037C687.569 -176.216 696.352 -209.498 738.253 -251.953L739.327 -250.893C697.707 -208.723 689.007 -175.749 680.278 -142.667L680.274 -142.651C671.519 -109.472 662.73 -76.1843 620.817 -33.7164C578.904 8.7515 545.728 17.9826 512.661 27.1789L512.645 27.1833C479.675 36.3523 446.812 45.4916 405.192 87.6619C363.57 129.835 354.865 162.817 346.132 195.904L346.13 195.913C337.372 229.095 328.584 262.383 286.682 304.839C244.781 347.295 211.606 356.526 178.538 365.722L178.522 365.726C145.552 374.895 112.689 384.035 71.0816 426.193C29.474 468.351 20.7733 501.325 12.0444 534.407L12.0401 534.422C3.28531 567.602 -5.50303 600.89 -47.4044 643.345C-89.3058 685.801 -122.475 695.026 -155.54 704.219L-155.548 704.222Z" fill="#A0A3BD"/>
<path fill-rule="evenodd" clip-rule="evenodd" d="M449.972 1310.08C417.003 1319.25 384.138 1328.39 342.515 1370.56L341.441 1369.5C383.343 1327.05 416.512 1317.82 449.577 1308.63L449.585 1308.63C482.555 1299.46 515.419 1290.32 557.042 1248.15C598.668 1205.97 607.371 1172.99 616.101 1139.9L616.102 1139.9C624.856 1106.72 633.639 1073.44 675.528 1031C717.417 988.552 750.587 979.327 783.654 970.131L783.656 970.13C816.63 960.96 849.503 951.818 891.129 909.642C932.751 867.468 941.456 834.486 950.189 801.399L950.191 801.391C958.949 768.208 967.737 734.92 1009.64 692.465C1051.54 650.009 1084.71 640.784 1117.78 631.588L1117.78 631.587C1150.75 622.417 1183.63 613.275 1225.26 571.086C1266.9 528.898 1275.6 495.914 1284.33 462.828L1284.34 462.826C1293.09 429.647 1301.87 396.365 1343.77 353.91L1344.85 354.97C1303.23 397.14 1294.53 430.114 1285.8 463.196L1285.79 463.211C1277.04 496.391 1268.25 529.679 1226.34 572.146C1184.42 614.614 1151.25 623.845 1118.18 633.042L1118.17 633.046C1085.2 642.215 1052.33 651.354 1010.71 693.525C969.09 735.698 960.385 768.68 951.653 801.767L951.65 801.776C942.893 834.958 934.104 868.246 892.203 910.702C850.301 953.157 817.126 962.388 784.059 971.585L784.043 971.589C751.073 980.758 718.21 989.898 676.602 1032.06C634.995 1074.21 626.294 1107.19 617.565 1140.27L617.561 1140.29C608.806 1173.46 600.017 1206.75 558.116 1249.21C516.215 1291.66 483.045 1300.89 449.981 1310.08L449.972 1310.08Z" fill="#A0A3BD"/>
<path fill-rule="evenodd" clip-rule="evenodd" d="M-307.514 567.067C-340.483 576.233 -373.348 585.371 -414.971 627.544L-416.045 626.484C-374.144 584.028 -340.974 574.803 -307.91 565.61L-307.901 565.608C-274.932 556.441 -242.067 547.303 -200.444 505.13C-158.819 462.954 -150.115 429.97 -141.385 396.884L-141.385 396.882C-132.63 363.703 -123.848 330.421 -81.9582 287.978C-40.0688 245.534 -6.89937 236.309 26.168 227.113L26.1696 227.112C59.1441 217.942 92.0168 208.8 133.642 166.624C175.265 124.45 183.97 91.4681 192.703 58.3812L192.705 58.3726C201.463 25.1902 210.251 -8.09764 252.152 -50.5533C294.054 -93.009 327.223 -102.234 360.291 -111.43L360.292 -111.431C393.267 -120.601 426.139 -129.743 467.777 -171.932C509.415 -214.12 518.118 -247.104 526.848 -280.19L526.849 -280.192C535.604 -313.371 544.386 -346.653 586.287 -389.109L587.361 -388.049C545.742 -345.878 537.041 -312.904 528.312 -279.823L528.308 -279.807C519.553 -246.627 510.765 -213.34 468.851 -170.872C426.938 -128.404 393.762 -119.173 360.695 -109.976L360.679 -109.972C327.709 -100.803 294.846 -91.6636 253.226 -49.4933C211.604 -7.32006 202.899 25.662 194.166 58.7488L194.164 58.7577C185.406 91.94 176.618 125.228 134.716 167.684C92.8151 210.139 59.6397 219.37 26.5722 228.567L26.5564 228.571C-6.41338 237.74 -39.2766 246.879 -80.8842 289.038C-122.492 331.196 -131.193 364.17 -139.921 397.251L-139.926 397.267C-148.681 430.447 -157.469 463.734 -199.37 506.19C-241.272 548.646 -274.441 557.871 -307.505 567.064L-307.514 567.067Z" fill="#A0A3BD"/>
<path fill-rule="evenodd" clip-rule="evenodd" d="M298.005 1162.97C265.036 1172.14 232.171 1181.27 190.549 1223.45L189.475 1222.39C231.376 1179.93 264.545 1170.71 297.61 1161.51L297.619 1161.51C330.588 1152.34 363.453 1143.21 405.075 1101.03C446.701 1058.86 455.404 1025.87 464.134 992.787L464.135 992.786C472.89 959.606 481.672 926.325 523.561 883.881C565.451 841.438 598.62 832.213 631.688 823.016L631.689 823.016C664.664 813.846 697.536 804.704 739.162 762.527C780.785 720.354 789.49 687.372 798.222 654.285L798.225 654.276C806.982 621.094 815.771 587.806 857.672 545.35C899.573 502.895 932.743 493.669 965.81 484.473L965.812 484.473C998.786 475.302 1031.66 466.16 1073.3 423.972C1114.93 381.784 1123.64 348.8 1132.37 315.714L1132.37 315.712C1141.12 282.532 1149.91 249.251 1191.81 206.795L1192.88 207.855C1151.26 250.025 1142.56 283 1133.83 316.081L1133.83 316.097C1125.07 349.276 1116.28 382.564 1074.37 425.032C1032.46 467.5 999.282 476.731 966.214 485.927L966.199 485.932C933.229 495.101 900.366 504.24 858.746 546.41C817.123 588.584 808.418 621.566 799.686 654.652L799.683 654.661C790.926 687.844 782.137 721.131 740.236 763.587C698.335 806.043 665.159 815.274 632.092 824.47L632.076 824.475C599.106 833.644 566.243 842.783 524.635 884.941C483.028 927.099 474.327 960.074 465.598 993.155L465.594 993.171C456.839 1026.35 448.051 1059.64 406.149 1102.09C364.248 1144.55 331.078 1153.77 298.014 1162.97L298.005 1162.97Z" fill="#A0A3BD"/>
<path fill-rule="evenodd" clip-rule="evenodd" d="M-8.71831 860.47C-41.6874 869.636 -74.5524 878.774 -116.175 920.947L-117.249 919.887C-75.3477 877.431 -42.1782 868.206 -9.11378 859.013L-9.10503 859.011C23.8641 849.844 56.729 840.707 98.3517 798.533C139.977 756.357 148.681 723.373 157.411 690.287L157.411 690.285C166.166 657.106 174.948 623.824 216.838 581.381C258.727 538.937 291.897 529.712 324.964 520.516L324.965 520.515C357.94 511.345 390.813 502.203 432.438 460.027C474.061 417.853 482.766 384.871 491.499 351.784L491.501 351.776C500.259 318.593 509.047 285.305 550.948 242.85C592.85 200.394 626.019 191.169 659.087 181.973L659.088 181.972C692.063 172.802 724.935 163.66 766.573 121.471C808.211 79.2831 816.914 46.2993 825.644 13.2133L825.645 13.2113C834.399 -19.968 843.182 -53.2498 885.083 -95.7055L886.157 -94.6455C844.538 -52.4753 835.837 -19.5008 827.108 13.5805L827.104 13.5963C818.349 46.7757 809.56 80.0635 767.647 122.531C725.734 164.999 692.558 174.23 659.491 183.427L659.475 183.431C626.505 192.6 593.642 201.739 552.022 243.91C510.4 286.083 501.695 319.065 492.962 352.152L492.96 352.161C484.202 385.343 475.414 418.631 433.512 461.087C391.611 503.542 358.436 512.773 325.368 521.97L325.352 521.974C292.383 531.143 259.519 540.283 217.912 582.441C176.304 624.599 167.603 657.573 158.874 690.654L158.87 690.67C150.115 723.85 141.327 757.137 99.4257 799.593C57.5243 842.049 24.3549 851.274 -8.70956 860.467L-8.71831 860.47Z" fill="#A0A3BD"/>
<path fill-rule="evenodd" clip-rule="evenodd" d="M596.801 1466.33C563.832 1475.5 530.967 1484.64 489.345 1526.81L488.271 1525.75C530.172 1483.29 563.341 1474.07 596.406 1464.88L596.415 1464.87C629.384 1455.71 662.249 1446.57 703.871 1404.4C745.497 1362.22 754.2 1329.24 762.93 1296.15L762.931 1296.15C771.685 1262.97 780.468 1229.69 822.357 1187.24C864.247 1144.8 897.416 1135.58 930.483 1126.38L930.485 1126.38C963.46 1117.21 996.332 1108.07 1037.96 1065.89C1079.58 1023.72 1088.29 990.734 1097.02 957.647L1097.02 957.639C1105.78 924.456 1114.57 891.168 1156.47 848.713C1198.37 806.257 1231.54 797.032 1264.61 787.836L1264.61 787.835C1297.58 778.665 1330.45 769.523 1372.09 727.334C1413.73 685.146 1422.43 652.162 1431.16 619.076L1431.16 619.074C1439.92 585.895 1448.7 552.613 1490.6 510.158L1491.68 511.218C1450.06 553.388 1441.36 586.362 1432.63 619.444L1432.62 619.459C1423.87 652.639 1415.08 685.927 1373.17 728.394C1331.25 770.862 1298.08 780.093 1265.01 789.29L1264.99 789.294C1232.02 798.463 1199.16 807.602 1157.54 849.773C1115.92 891.946 1107.21 924.928 1098.48 958.015L1098.48 958.024C1089.72 991.206 1080.93 1024.49 1039.03 1066.95C997.131 1109.41 963.955 1118.64 930.888 1127.83L930.872 1127.84C897.902 1137.01 865.039 1146.15 823.431 1188.3C781.824 1230.46 773.123 1263.44 764.394 1296.52L764.39 1296.53C755.635 1329.71 746.847 1363 704.945 1405.46C663.044 1447.91 629.874 1457.14 596.81 1466.33L596.801 1466.33Z" fill="#A0A3BD"/>
<path fill-rule="evenodd" clip-rule="evenodd" d="M-511.373 359.704C-544.342 368.871 -577.207 378.008 -618.829 420.182L-619.903 419.122C-578.002 376.666 -544.833 367.441 -511.768 358.248L-511.759 358.245C-478.79 349.079 -445.925 339.941 -404.303 297.768C-362.677 255.591 -353.974 222.607 -345.244 189.521L-345.243 189.52C-336.488 156.34 -327.706 123.059 -285.817 80.615C-243.927 38.1714 -210.758 28.9464 -177.69 19.7502L-177.689 19.7498C-144.714 10.5794 -111.842 1.43739 -70.2159 -40.739C-28.5933 -82.9123 -19.8883 -115.894 -11.1556 -148.981L-11.1534 -148.99C-2.39561 -182.172 6.39274 -215.46 48.2941 -257.916C90.1954 -300.372 123.365 -309.597 156.432 -318.793L156.434 -318.793C189.408 -327.964 222.281 -337.106 263.919 -379.294C305.556 -421.483 314.26 -454.466 322.99 -487.552L322.99 -487.554C331.745 -520.734 340.527 -554.015 382.429 -596.471L383.503 -595.411C341.883 -553.241 333.182 -520.266 324.454 -487.185L324.449 -487.169C315.695 -453.99 306.906 -420.702 264.993 -378.234C223.079 -335.766 189.904 -326.535 156.837 -317.339L156.821 -317.335C123.851 -308.166 90.9878 -299.026 49.3681 -256.856C7.74548 -214.683 -0.959481 -181.701 -9.69209 -148.614L-9.69444 -148.605C-18.4522 -115.423 -27.2406 -82.1347 -69.1419 -39.679C-111.043 2.77675 -144.219 12.0079 -177.286 21.2041L-177.302 21.2085C-210.272 30.3775 -243.135 39.5169 -284.743 81.675C-326.35 123.833 -335.051 156.807 -343.78 189.889L-343.784 189.905C-352.539 223.084 -361.327 256.372 -403.229 298.828C-445.13 341.283 -478.299 350.508 -511.364 359.702L-511.373 359.704Z" fill="#A0A3BD"/>
<path fill-rule="evenodd" clip-rule="evenodd" d="M95.353 956.614C62.3838 965.78 29.5189 974.918 -12.1037 1017.09L-13.1777 1016.03C28.7236 973.576 61.8931 964.35 94.9575 955.157L94.9663 955.155C127.935 945.988 160.8 936.851 202.423 894.677C244.049 852.501 252.752 819.517 261.482 786.431L261.482 786.429C270.237 753.25 279.02 719.968 320.909 677.525C362.798 635.081 395.968 625.856 429.035 616.66L429.037 616.659C462.011 607.489 494.884 598.347 536.51 556.171C578.132 513.997 586.837 481.015 595.57 447.928L595.572 447.92C604.33 414.737 613.118 381.449 655.02 338.994C696.921 296.538 730.09 287.313 763.158 278.117L763.16 278.116C796.134 268.946 829.007 259.804 870.644 217.615C912.282 175.427 920.985 142.443 929.715 109.357L929.716 109.355C938.471 76.176 947.253 42.8943 989.154 0.43857L990.228 1.49856C948.609 43.6688 939.908 76.6432 931.179 109.725L931.175 109.74C922.42 142.92 913.632 176.208 871.718 218.675C829.805 261.143 796.63 270.374 763.562 279.571L763.546 279.575C730.577 288.744 697.713 297.883 656.094 340.054C614.471 382.227 605.766 415.209 597.033 448.296L597.031 448.305C588.273 481.487 579.485 514.775 537.584 557.231C495.682 599.686 462.507 608.918 429.439 618.114L429.424 618.118C396.454 627.287 363.591 636.427 321.983 678.585C280.375 720.743 271.675 753.717 262.946 786.798L262.942 786.814C254.187 819.994 245.398 853.282 203.497 895.737C161.596 938.193 128.426 947.418 95.3617 956.611L95.353 956.614Z" fill="#A0A3BD"/>
<path fill-rule="evenodd" clip-rule="evenodd" d="M-212.577 663.067C-245.546 672.234 -278.411 681.372 -320.033 723.545L-321.107 722.485C-279.206 680.029 -246.037 670.804 -212.972 661.611L-212.963 661.609C-179.994 652.442 -147.129 643.304 -105.507 601.131C-63.8811 558.955 -55.1779 525.971 -46.4477 492.885L-46.4472 492.883C-37.6924 459.704 -28.9101 426.422 12.9793 383.978C54.8687 341.535 88.0381 332.31 121.105 323.114L121.107 323.113C154.082 313.943 186.954 304.801 228.58 262.624C270.203 220.451 278.908 187.469 287.64 154.382L287.642 154.373C296.4 121.191 305.189 87.9031 347.09 45.4474C388.991 2.9917 422.161 -6.23336 455.228 -15.4296L455.23 -15.43C488.204 -24.6004 521.077 -33.7424 562.715 -75.9309C604.352 -118.119 613.055 -151.103 621.786 -184.189L621.786 -184.191C630.541 -217.37 639.323 -250.652 681.225 -293.108L682.299 -292.048C640.679 -249.878 631.978 -216.903 623.249 -183.822L623.245 -183.806C614.49 -150.627 605.702 -117.339 563.789 -74.8709C521.875 -32.403 488.7 -23.1719 455.632 -13.9756L455.617 -13.9713C422.647 -4.80224 389.784 4.3371 348.164 46.5074C306.541 88.6807 297.836 121.663 289.104 154.75L289.101 154.758C280.344 187.941 271.555 221.229 229.654 263.684C187.753 306.14 154.577 315.371 121.51 324.567L121.494 324.572C88.5241 333.741 55.6609 342.88 14.0533 385.038C-27.5543 427.196 -36.255 460.171 -44.984 493.252L-44.9882 493.268C-53.743 526.447 -62.5313 559.735 -104.433 602.191C-146.334 644.647 -179.504 653.872 -212.568 663.065L-212.577 663.067Z" fill="#A0A3BD"/>
<path fill-rule="evenodd" clip-rule="evenodd" d="M392.943 1258.97C359.974 1268.14 327.109 1277.28 285.486 1319.45L284.412 1318.39C326.313 1275.93 359.483 1266.71 392.547 1257.51L392.556 1257.51C425.525 1248.35 458.39 1239.21 500.013 1197.03C541.638 1154.86 550.342 1121.87 559.072 1088.79L559.072 1088.79C567.827 1055.61 576.609 1022.33 618.499 979.882C660.388 937.438 693.558 928.213 726.625 919.017L726.627 919.017C759.601 909.846 792.474 900.704 834.099 858.528C875.722 816.355 884.427 783.372 893.16 750.285L893.162 750.277C901.92 717.094 910.708 683.807 952.61 641.351C994.511 598.895 1027.68 589.67 1060.75 580.474L1060.75 580.474C1093.72 571.303 1126.6 562.161 1168.23 519.973C1209.87 477.784 1218.57 444.8 1227.31 411.715L1227.31 411.713C1236.06 378.533 1244.84 345.251 1286.74 302.796L1287.82 303.856C1246.2 346.026 1237.5 379 1228.77 412.082L1228.76 412.098C1220.01 445.277 1211.22 478.565 1169.31 521.033C1127.39 563.501 1094.22 572.732 1061.15 581.928L1061.14 581.932C1028.17 591.101 995.303 600.241 953.684 642.411C912.061 684.584 903.356 717.566 894.623 750.653L894.621 750.662C885.863 783.844 877.075 817.132 835.174 859.588C793.272 902.044 760.097 911.275 727.029 920.471L727.013 920.475C694.044 929.644 661.18 938.784 619.573 980.942C577.965 1023.1 569.265 1056.07 560.536 1089.16L560.531 1089.17C551.777 1122.35 542.988 1155.64 501.087 1198.09C459.185 1240.55 426.016 1249.78 392.952 1258.97L392.943 1258.97Z" fill="#A0A3BD"/>
<path fill-rule="evenodd" clip-rule="evenodd" d="M-364.543 515.952C-397.512 525.118 -430.377 534.256 -471.999 576.429L-473.073 575.369C-431.172 532.914 -398.002 523.689 -364.938 514.495L-364.929 514.493C-331.96 505.326 -299.095 496.189 -257.473 454.015C-215.847 411.839 -207.144 378.855 -198.413 345.769L-198.413 345.767C-189.658 312.588 -180.876 279.306 -138.987 236.863C-97.0972 194.419 -63.9277 185.194 -30.8604 175.998L-30.8587 175.998C2.1158 166.827 34.9885 157.685 76.6141 115.509C118.237 73.3355 126.942 40.3533 135.674 7.26644L135.677 7.25782C144.434 -25.9246 153.223 -59.2124 195.124 -101.668C237.026 -144.124 270.195 -153.349 303.262 -162.545L303.264 -162.545C336.239 -171.716 369.111 -180.858 410.749 -223.046C452.386 -265.235 461.09 -298.219 469.82 -331.305L469.82 -331.307C478.575 -364.486 487.358 -397.768 529.259 -440.223L530.333 -439.163C488.713 -396.993 480.013 -364.019 471.284 -330.937L471.279 -330.922C462.525 -297.742 453.736 -264.454 411.823 -221.986C369.91 -179.519 336.734 -170.287 303.667 -161.091L303.651 -161.087C270.681 -151.918 237.818 -142.778 196.198 -100.608C154.576 -58.4348 145.871 -25.4527 137.138 7.63404L137.136 7.64296C128.378 40.8253 119.59 74.1131 77.6882 116.569C35.7868 159.025 2.61139 168.256 -30.4561 177.452L-30.4719 177.456C-63.4417 186.625 -96.3049 195.765 -137.913 237.923C-179.52 280.081 -188.221 313.055 -196.95 346.137L-196.954 346.152C-205.709 379.332 -214.497 412.62 -256.399 455.075C-298.3 497.531 -331.469 506.756 -364.534 515.949L-364.543 515.952Z" fill="#A0A3BD"/>
<path fill-rule="evenodd" clip-rule="evenodd" d="M242.183 1112.86C209.214 1122.03 176.349 1131.17 134.726 1173.34L133.652 1172.28C175.554 1129.82 208.723 1120.6 241.788 1111.41L241.796 1111.4C274.765 1102.24 307.63 1093.1 349.253 1050.93C390.879 1008.75 399.582 975.765 408.312 942.679L408.313 942.677C417.067 909.498 425.85 876.216 467.739 833.772C509.628 791.329 542.798 782.104 575.865 772.908L575.867 772.907C608.841 763.737 641.714 754.595 683.34 712.419C724.962 670.245 733.667 637.263 742.4 604.176L742.402 604.167C751.16 570.985 759.948 537.697 801.85 495.242C843.751 452.786 876.921 443.561 909.988 434.365L909.99 434.364C942.964 425.194 975.837 416.052 1017.47 373.863C1059.11 331.675 1067.82 298.691 1076.55 265.605L1076.55 265.603C1085.3 232.424 1094.08 199.142 1135.98 156.686L1137.06 157.746C1095.44 199.917 1086.74 232.891 1078.01 265.972L1078.01 265.988C1069.25 299.168 1060.46 332.455 1018.55 374.923C976.635 417.391 943.46 426.622 910.392 435.819L910.376 435.823C877.407 444.992 844.543 454.131 802.924 496.302C761.301 538.475 752.596 571.457 743.864 604.544L743.861 604.553C735.103 637.735 726.315 671.023 684.414 713.479C642.512 755.934 609.337 765.165 576.27 774.362L576.254 774.366C543.284 783.535 510.421 792.674 468.813 834.832C427.205 876.991 418.505 909.965 409.776 943.046L409.772 943.062C401.017 976.242 392.228 1009.53 350.327 1051.99C308.426 1094.44 275.256 1103.67 242.192 1112.86L242.183 1112.86Z" fill="#A0A3BD"/>
<path fill-rule="evenodd" clip-rule="evenodd" d="M-65.7466 809.355C-98.7158 818.521 -131.581 827.659 -173.203 869.832L-174.277 868.772C-132.376 826.317 -99.2065 817.092 -66.1421 807.899L-66.1334 807.896C-33.1642 798.729 -0.299281 789.592 41.3233 747.418C82.949 705.242 91.6522 672.258 100.382 639.172L100.383 639.171C109.138 605.991 117.92 572.709 159.809 530.266C201.699 487.822 234.868 478.597 267.936 469.401L267.937 469.401C300.912 460.23 333.784 451.088 375.41 408.912C417.033 366.739 425.738 333.756 434.47 300.67L434.473 300.661C443.23 267.479 452.019 234.191 493.92 191.735C535.821 149.279 568.991 140.054 602.058 130.858L602.06 130.858C635.034 121.687 667.907 112.545 709.545 70.3567C751.182 28.1683 759.886 -4.81548 768.616 -37.9014L768.616 -37.9034C777.371 -71.0828 786.153 -104.365 828.055 -146.82L829.129 -145.76C787.509 -103.59 778.808 -70.6156 770.079 -37.5342L770.075 -37.5184C761.321 -4.33905 752.532 28.9488 710.619 71.4167C668.705 113.885 635.53 123.116 602.463 132.312L602.447 132.316C569.477 141.485 536.614 150.625 494.994 192.795C453.371 234.968 444.666 267.95 435.934 301.037L435.932 301.046C427.174 334.228 418.385 367.516 376.484 409.972C334.583 452.428 301.407 461.659 268.34 470.855L268.324 470.859C235.354 480.028 202.491 489.168 160.883 531.326C119.276 573.484 110.575 606.458 101.846 639.54L101.842 639.556C93.0871 672.735 84.2987 706.023 42.3974 748.478C0.495984 790.934 -32.6735 800.159 -65.7379 809.352L-65.7466 809.355Z" fill="#A0A3BD"/>
<path fill-rule="evenodd" clip-rule="evenodd" d="M539.773 1415.22C506.804 1424.38 473.939 1433.52 432.316 1475.7L431.242 1474.64C473.144 1432.18 506.313 1422.95 539.377 1413.76L539.386 1413.76C572.355 1404.59 605.22 1395.45 646.843 1353.28C688.469 1311.1 697.172 1278.12 705.902 1245.03L705.902 1245.03C714.657 1211.85 723.44 1178.57 765.329 1136.13C807.218 1093.69 840.388 1084.46 873.455 1075.26L873.457 1075.26C906.431 1066.09 939.304 1056.95 980.93 1014.77C1022.55 972.601 1031.26 939.619 1039.99 906.532L1039.99 906.524C1048.75 873.341 1057.54 840.053 1099.44 797.598C1141.34 755.142 1174.51 745.917 1207.58 736.721L1207.58 736.72C1240.55 727.55 1273.43 718.408 1315.06 676.219C1356.7 634.031 1365.41 601.047 1374.14 567.961L1374.14 567.959C1382.89 534.78 1391.67 501.498 1433.57 459.043L1434.65 460.103C1393.03 502.273 1384.33 535.247 1375.6 568.329L1375.59 568.344C1366.84 601.524 1358.05 634.812 1316.14 677.279C1274.22 719.747 1241.05 728.978 1207.98 738.175L1207.97 738.179C1175 747.348 1142.13 756.487 1100.51 798.658C1058.89 840.831 1050.19 873.813 1041.45 906.9L1041.45 906.909C1032.69 940.091 1023.9 973.379 982.004 1015.83C940.102 1058.29 906.927 1067.52 873.859 1076.72L873.844 1076.72C840.874 1085.89 808.011 1095.03 766.403 1137.19C724.795 1179.35 716.095 1212.32 707.366 1245.4L707.361 1245.42C698.607 1278.6 689.818 1311.89 647.917 1354.34C606.016 1396.8 572.846 1406.02 539.782 1415.22L539.773 1415.22Z" fill="#A0A3BD"/>
<path fill-rule="evenodd" clip-rule="evenodd" d="M-409.776 462.442C-442.745 471.609 -475.61 480.747 -517.233 522.92L-518.307 521.86C-476.405 479.404 -443.236 470.179 -410.171 460.986L-410.163 460.984C-377.194 451.817 -344.329 442.679 -302.706 400.506C-261.08 358.33 -252.377 325.346 -243.647 292.26L-243.646 292.258C-234.892 259.079 -226.109 225.797 -184.22 183.354C-142.331 140.91 -109.161 131.685 -76.0937 122.489L-76.0921 122.488C-43.1176 113.318 -10.2449 104.176 31.3807 61.9996C73.0034 19.8263 81.7084 -13.156 90.441 -46.2428L90.4433 -46.2515C99.2011 -79.4338 107.989 -112.722 149.891 -155.177C191.792 -197.633 224.962 -206.858 258.029 -216.054L258.031 -216.055C291.005 -225.225 323.878 -234.367 365.515 -276.556C407.153 -318.744 415.856 -351.728 424.586 -384.814L424.587 -384.816C433.342 -417.995 442.124 -451.277 484.025 -493.733L485.099 -492.673C443.48 -450.502 434.779 -417.528 426.05 -384.447L426.046 -384.431C417.291 -351.251 408.503 -317.964 366.589 -275.496C324.676 -233.028 291.501 -223.797 258.433 -214.6L258.417 -214.596C225.448 -205.427 192.584 -196.288 150.965 -154.117C109.342 -111.944 100.637 -78.962 91.9046 -45.8752L91.9022 -45.8663C83.1445 -12.684 74.3561 20.6038 32.4548 63.0596C-9.44662 105.515 -42.622 114.746 -75.6895 123.943L-75.7053 123.947C-108.675 133.116 -141.538 142.255 -183.146 184.414C-224.754 226.572 -233.454 259.546 -242.183 292.627L-242.187 292.643C-250.942 325.823 -259.731 359.11 -301.632 401.566C-343.533 444.022 -376.703 453.247 -409.767 462.44L-409.776 462.442Z" fill="#A0A3BD"/>
<path fill-rule="evenodd" clip-rule="evenodd" d="M196.951 1059.35C163.981 1068.52 131.117 1077.66 89.4939 1119.83L88.4199 1118.77C130.321 1076.31 163.491 1067.09 196.555 1057.9L196.564 1057.89C229.533 1048.73 262.398 1039.59 304.021 997.415C345.646 955.239 354.349 922.255 363.08 889.169L363.08 889.167C371.835 855.988 380.617 822.706 422.507 780.262C464.396 737.819 497.565 728.594 530.633 719.398L530.634 719.397C563.609 710.227 596.482 701.085 638.107 658.909C679.73 616.735 688.435 583.753 697.168 550.666L697.17 550.657C705.928 517.475 714.716 484.187 756.617 441.732C798.519 399.276 831.688 390.051 864.756 380.855L864.757 380.854C897.732 371.684 930.604 362.542 972.242 320.353C1013.88 278.165 1022.58 245.181 1031.31 212.095L1031.31 212.093C1040.07 178.914 1048.85 145.632 1090.75 103.176L1091.83 104.236C1050.21 146.407 1041.51 179.381 1032.78 212.462L1032.77 212.478C1024.02 245.658 1015.23 278.945 973.316 321.413C931.403 363.881 898.227 373.112 865.16 382.309L865.144 382.313C832.174 391.482 799.311 400.621 757.691 442.792C716.069 484.965 707.364 517.947 698.631 551.034L698.629 551.043C689.871 584.225 681.083 617.513 639.181 659.968C597.28 702.424 564.105 711.655 531.037 720.852L531.021 720.856C498.051 730.025 465.188 739.164 423.581 781.322C381.973 823.481 373.272 856.455 364.543 889.536L364.539 889.552C355.784 922.732 346.996 956.019 305.095 998.475C263.193 1040.93 230.024 1050.16 196.959 1059.35L196.951 1059.35Z" fill="#A0A3BD"/>
<path fill-rule="evenodd" clip-rule="evenodd" d="M-110.979 755.846C-143.948 765.012 -176.813 774.15 -218.436 816.323L-219.51 815.263C-177.608 772.807 -144.439 763.582 -111.375 754.389L-111.366 754.387C-78.3966 745.22 -45.5317 736.082 -3.90907 693.909C37.7166 651.733 46.4198 618.749 55.15 585.663L55.1504 585.661C63.9052 552.482 72.6876 519.2 114.577 476.757C156.466 434.313 189.636 425.088 222.703 415.892L222.705 415.891C255.679 406.721 288.552 397.579 330.178 355.403C371.8 313.229 380.505 280.247 389.238 247.16L389.24 247.152C397.998 213.969 406.786 180.681 448.688 138.226C490.589 95.77 523.758 86.545 556.826 77.3488L556.828 77.3483C589.802 68.1779 622.675 59.036 664.312 16.8474C705.95 -25.341 714.653 -58.3248 723.383 -91.4107L723.384 -91.4127C732.139 -124.592 740.921 -157.874 782.822 -200.329L783.896 -199.27C742.277 -157.099 733.576 -124.125 724.847 -91.0435L724.843 -91.0277C716.088 -57.8483 707.3 -24.5605 665.386 17.9074C623.473 60.3753 590.298 69.6064 557.23 78.8027L557.214 78.8071C524.245 87.9761 491.381 97.1154 449.762 139.286C408.139 181.459 399.434 214.441 390.701 247.528L390.699 247.537C381.941 280.719 373.153 314.007 331.252 356.463C289.35 398.918 256.175 408.149 223.107 417.346L223.092 417.35C190.122 426.519 157.259 435.659 115.651 477.817C74.0433 519.975 65.3426 552.949 56.6137 586.03L56.6095 586.046C47.8546 619.226 39.0663 652.513 -2.83506 694.969C-44.7364 737.425 -77.9059 746.65 -110.97 755.843L-110.979 755.846Z" fill="#A0A3BD"/>
<path fill-rule="evenodd" clip-rule="evenodd" d="M494.54 1361.71C461.57 1370.87 428.705 1380.01 387.083 1422.19L386.009 1421.13C427.91 1378.67 461.08 1369.45 494.144 1360.25L494.153 1360.25C527.122 1351.08 559.987 1341.95 601.609 1299.77C643.235 1257.6 651.938 1224.61 660.669 1191.53L660.669 1191.52C669.424 1158.34 678.206 1125.06 720.096 1082.62C761.985 1040.18 795.154 1030.95 828.222 1021.75L828.223 1021.75C861.198 1012.58 894.071 1003.44 935.696 961.265C977.319 919.092 986.024 886.11 994.756 853.023L994.759 853.014C1003.52 819.832 1012.3 786.544 1054.21 744.089C1096.11 701.633 1129.28 692.408 1162.34 683.212L1162.35 683.211C1195.32 674.041 1228.19 664.899 1269.83 622.71C1311.47 580.522 1320.17 547.538 1328.9 514.452L1328.9 514.45C1337.66 481.271 1346.44 447.989 1388.34 405.533L1389.41 406.593C1347.8 448.764 1339.09 481.738 1330.37 514.819L1330.36 514.835C1321.61 548.014 1312.82 581.302 1270.9 623.77C1228.99 666.238 1195.82 675.469 1162.75 684.665L1162.73 684.67C1129.76 693.839 1096.9 702.978 1055.28 745.149C1013.66 787.322 1004.95 820.304 996.22 853.391L996.218 853.4C987.46 886.582 978.672 919.87 936.77 962.325C894.869 1004.78 861.693 1014.01 828.626 1023.21L828.61 1023.21C795.64 1032.38 762.777 1041.52 721.17 1083.68C679.562 1125.84 670.861 1158.81 662.132 1191.89L662.128 1191.91C653.373 1225.09 644.585 1258.38 602.683 1300.83C560.782 1343.29 527.613 1352.51 494.548 1361.71L494.54 1361.71Z" fill="#A0A3BD"/>
<path fill-rule="evenodd" clip-rule="evenodd" d="M-262.947 618.689C-295.916 627.856 -328.781 636.994 -370.404 679.167L-371.478 678.107C-329.576 635.651 -296.407 626.426 -263.342 617.233L-263.334 617.231C-230.364 608.064 -197.499 598.926 -155.877 556.753C-114.251 514.577 -105.548 481.593 -96.8178 448.507L-96.8174 448.505C-88.0626 415.326 -79.2802 382.044 -37.3908 339.6C4.49854 297.157 37.668 287.932 70.7354 278.736L70.737 278.735C103.712 269.565 136.584 260.423 178.21 218.246C219.832 176.073 228.537 143.091 237.27 110.004L237.272 109.995C246.03 76.813 254.819 43.5252 296.72 1.06949C338.621 -41.3862 371.791 -50.6113 404.858 -59.8075L404.86 -59.8079C437.834 -68.9783 470.707 -78.1203 512.345 -120.309C553.982 -162.497 562.685 -195.481 571.416 -228.567L571.416 -228.569C580.171 -261.748 588.953 -295.03 630.855 -337.486L631.929 -336.426C590.309 -294.256 581.608 -261.281 572.879 -228.2L572.875 -228.184C564.12 -195.005 555.332 -161.717 513.419 -119.249C471.505 -76.781 438.33 -67.5498 405.262 -58.3536L405.247 -58.3492C372.277 -49.1802 339.414 -40.0408 297.794 2.12948C256.171 44.3027 247.466 77.2848 238.734 110.372L238.731 110.381C229.974 143.563 221.185 176.851 179.284 219.306C137.382 261.762 104.207 270.993 71.1396 280.189L71.1238 280.194C38.154 289.363 5.29079 298.502 -36.3168 340.66C-77.9244 382.818 -86.6251 415.793 -95.3541 448.874L-95.3583 448.89C-104.113 482.069 -112.901 515.357 -154.803 557.813C-196.704 600.269 -229.874 609.494 -262.938 618.687L-262.947 618.689Z" fill="#A0A3BD"/>
<path fill-rule="evenodd" clip-rule="evenodd" d="M342.572 1214.59C309.603 1223.76 276.738 1232.9 235.115 1275.07L234.041 1274.01C275.942 1231.55 309.112 1222.33 342.176 1213.14L342.185 1213.13C375.154 1203.97 408.019 1194.83 449.642 1152.66C491.267 1110.48 499.971 1077.5 508.701 1044.41L508.701 1044.41C517.456 1011.23 526.238 977.947 568.128 935.504C610.017 893.06 643.187 883.835 676.254 874.639L676.256 874.639C709.23 865.468 742.103 856.326 783.728 814.15C825.351 771.977 834.056 738.994 842.789 705.908L842.791 705.899C851.549 672.717 860.337 639.429 902.238 596.973C944.14 554.517 977.309 545.292 1010.38 536.096L1010.38 536.096C1043.35 526.925 1076.23 517.783 1117.86 475.595C1159.5 433.406 1168.2 400.423 1176.93 367.337L1176.93 367.335C1185.69 334.155 1194.47 300.874 1236.37 258.418L1237.45 259.478C1195.83 301.648 1187.13 334.622 1178.4 367.704L1178.39 367.72C1169.64 400.899 1160.85 434.187 1118.94 476.655C1077.02 519.123 1043.85 528.354 1010.78 537.55L1010.77 537.554C977.795 546.723 944.932 555.863 903.312 598.033C861.69 640.206 852.985 673.188 844.252 706.275L844.25 706.284C835.492 739.466 826.704 772.754 784.802 815.21C742.901 857.666 709.726 866.897 676.658 876.093L676.642 876.097C643.673 885.266 610.809 894.406 569.202 936.564C527.594 978.722 518.893 1011.7 510.164 1044.78L510.16 1044.79C501.405 1077.97 492.617 1111.26 450.716 1153.72C408.814 1196.17 375.645 1205.4 342.58 1214.59L342.572 1214.59Z" fill="#A0A3BD"/>
<path fill-rule="evenodd" clip-rule="evenodd" d="M35.851 912.093C2.88189 921.26 -29.983 930.398 -71.6057 972.571L-72.6797 971.511C-30.7783 929.055 2.39112 919.83 35.4556 910.637L35.4643 910.635C68.4334 901.468 101.298 892.33 142.921 850.157C184.547 807.981 193.25 774.997 201.98 741.911L201.98 741.909C210.735 708.73 219.518 675.448 261.407 633.004C303.296 590.561 336.466 581.336 369.533 572.14L369.535 572.139C402.509 562.969 435.382 553.827 477.008 511.65C518.63 469.477 527.335 436.495 536.068 403.408L536.07 403.399C544.828 370.217 553.616 336.929 595.518 294.474C637.419 252.018 670.589 242.793 703.656 233.597L703.658 233.596C736.632 224.426 769.505 215.284 811.142 173.095C852.78 130.907 861.483 97.923 870.213 64.8371L870.214 64.8351C878.969 31.6557 887.751 -1.62598 929.652 -44.0817L930.726 -43.0217C889.107 -0.851481 880.406 32.1229 871.677 65.2043L871.673 65.2201C862.918 98.3995 854.13 131.687 812.216 174.155C770.303 216.623 737.128 225.854 704.06 235.05L704.044 235.055C671.075 244.224 638.211 253.363 596.592 295.534C554.969 337.707 546.264 370.689 537.532 403.776L537.529 403.785C528.771 436.967 519.983 470.255 478.082 512.71C436.18 555.166 403.005 564.397 369.937 573.594L369.922 573.598C336.952 582.767 304.089 591.906 262.481 634.064C220.873 676.222 212.173 709.197 203.444 742.278L203.44 742.294C194.685 775.473 185.896 808.761 143.995 851.217C102.094 893.673 68.9242 902.898 35.8598 912.091L35.851 912.093Z" fill="#A0A3BD"/>
<path fill-rule="evenodd" clip-rule="evenodd" d="M641.37 1517.96C608.4 1527.12 575.536 1536.26 533.913 1578.43L532.839 1577.37C574.74 1534.92 607.91 1525.69 640.974 1516.5L640.983 1516.5C673.952 1507.33 706.817 1498.19 748.44 1456.02C790.065 1413.84 798.768 1380.86 807.499 1347.77L807.499 1347.77C816.254 1314.59 825.036 1281.31 866.926 1238.87C908.815 1196.42 941.984 1187.2 975.052 1178L975.053 1178C1008.03 1168.83 1040.9 1159.69 1082.53 1117.51C1124.15 1075.34 1132.85 1042.36 1141.59 1009.27L1141.59 1009.26C1150.35 976.08 1159.13 942.792 1201.04 900.337C1242.94 857.881 1276.11 848.656 1309.17 839.46L1309.18 839.459C1342.15 830.289 1375.02 821.147 1416.66 778.958C1458.3 736.77 1467 703.786 1475.73 670.7L1475.73 670.698C1484.49 637.519 1493.27 604.237 1535.17 561.781L1536.25 562.841C1494.63 605.012 1485.92 637.986 1477.2 671.067L1477.19 671.083C1468.44 704.263 1459.65 737.55 1417.73 780.018C1375.82 822.486 1342.65 831.717 1309.58 840.914L1309.56 840.918C1276.59 850.087 1243.73 859.226 1202.11 901.397C1160.49 943.57 1151.78 976.552 1143.05 1009.64L1143.05 1009.65C1134.29 1042.83 1125.5 1076.12 1083.6 1118.57C1041.7 1161.03 1008.52 1170.26 975.456 1179.46L975.44 1179.46C942.47 1188.63 909.607 1197.77 868 1239.93C826.392 1282.09 817.691 1315.06 808.962 1348.14L808.958 1348.16C800.203 1381.34 791.415 1414.62 749.514 1457.08C707.612 1499.54 674.443 1508.76 641.378 1517.95L641.37 1517.96Z" fill="#A0A3BD"/>
<path fill-rule="evenodd" clip-rule="evenodd" d="M-90.0181 785.399C-122.987 794.565 -155.852 803.703 -197.475 845.876L-198.549 844.816C-156.647 802.361 -123.478 793.136 -90.4136 783.942L-90.4048 783.94C-57.4357 774.773 -24.5708 765.636 17.0519 723.462C58.6775 681.286 67.3807 648.302 76.1109 615.216L76.1114 615.214C84.8662 582.035 93.6485 548.753 135.538 506.31C177.427 463.866 210.597 454.641 243.664 445.445L243.666 445.445C276.64 436.274 309.513 427.132 351.139 384.956C392.761 342.783 401.466 309.8 410.199 276.713L410.201 276.705C418.959 243.522 427.747 210.235 469.649 167.779C511.55 125.323 544.719 116.098 577.787 106.902L577.788 106.902C610.763 97.7312 643.636 88.5892 685.273 46.4006C726.911 4.21226 735.614 -28.7715 744.344 -61.8575L744.345 -61.8595C753.1 -95.0388 761.882 -128.321 803.783 -170.776L804.857 -169.716C763.238 -127.546 754.537 -94.5716 745.808 -61.4903L745.804 -61.4745C737.049 -28.2951 728.261 4.99274 686.347 47.4606C644.434 89.9285 611.259 99.1596 578.191 108.356L578.175 108.36C545.205 117.529 512.342 126.669 470.723 168.839C429.1 211.012 420.395 243.994 411.662 277.081L411.66 277.09C402.902 310.272 394.114 343.56 352.213 386.016C310.311 428.472 277.136 437.703 244.068 446.899L244.052 446.903C211.083 456.072 178.219 465.212 136.612 507.37C95.0043 549.528 86.3036 582.502 77.5746 615.584L77.5704 615.599C68.8156 648.779 60.0272 682.067 18.1259 724.522C-23.7755 766.978 -56.9449 776.203 -90.0094 785.396L-90.0181 785.399Z" fill="#A0A3BD"/>
<path fill-rule="evenodd" clip-rule="evenodd" d="M-535.645 335.748C-568.614 344.915 -601.479 354.052 -643.102 396.226L-644.176 395.166C-602.274 352.71 -569.105 343.485 -536.041 334.292L-536.032 334.289C-503.063 325.123 -470.198 315.985 -428.575 273.812C-386.949 231.635 -378.246 198.651 -369.516 165.565L-369.516 165.564C-360.761 132.384 -351.978 99.1025 -310.089 56.6589C-268.2 14.2154 -235.03 4.99035 -201.963 -4.20583L-201.961 -4.2063C-168.987 -13.3767 -136.114 -22.5187 -94.4884 -64.695C-52.8657 -106.868 -44.1608 -139.851 -35.4281 -172.937L-35.4259 -172.946C-26.6681 -206.128 -17.8797 -239.416 24.0216 -281.872C65.923 -324.328 99.0924 -333.553 132.16 -342.749L132.161 -342.749C165.136 -351.92 198.009 -361.062 239.646 -403.25C281.284 -445.439 289.987 -478.422 298.717 -511.508L298.718 -511.51C307.473 -544.69 316.255 -577.971 358.156 -620.427L359.23 -619.367C317.611 -577.197 308.91 -544.223 300.181 -511.141L300.177 -511.125C291.422 -477.946 282.634 -444.658 240.72 -402.19C198.807 -359.722 165.632 -350.491 132.564 -341.295L132.548 -341.291C99.5785 -332.122 66.7153 -322.982 25.0956 -280.812C-16.527 -238.639 -25.2319 -205.657 -33.9646 -172.57L-33.9669 -172.561C-42.7247 -139.379 -51.513 -106.091 -93.4144 -63.635C-135.316 -21.1793 -168.491 -11.9482 -201.559 -2.75196L-201.574 -2.74753C-234.544 6.42145 -267.407 15.5609 -309.015 57.7189C-350.623 99.877 -359.323 132.851 -368.052 165.933L-368.057 165.949C-376.811 199.128 -385.6 232.416 -427.501 274.872C-469.402 317.327 -502.572 326.552 -535.636 335.745L-535.645 335.748Z" fill="#A0A3BD"/>
<path fill-rule="evenodd" clip-rule="evenodd" d="M71.0805 932.658C38.1114 941.824 5.24645 950.962 -36.3762 993.135L-37.4502 992.075C4.45117 949.619 37.6206 940.394 70.685 931.201L70.6938 931.199C103.663 922.032 136.528 912.895 178.15 870.721C219.776 828.545 228.479 795.561 237.21 762.475L237.21 762.473C245.965 729.294 254.747 696.012 296.637 653.569C338.526 611.125 371.695 601.9 404.763 592.704L404.764 592.703C437.739 583.533 470.612 574.391 512.237 532.215C553.86 490.041 562.565 457.059 571.297 423.972L571.3 423.964C580.058 390.781 588.846 357.493 630.747 315.038C672.649 272.582 705.818 263.357 738.885 254.161L738.887 254.16C771.862 244.99 804.734 235.848 846.372 193.659C888.009 151.471 896.713 118.487 905.443 85.4013L905.443 85.3993C914.198 52.2199 922.981 18.9382 964.882 -23.5175L965.956 -22.4575C924.336 19.7127 915.636 52.6871 906.907 85.7685L906.902 85.7843C898.148 118.964 889.359 152.252 847.446 194.719C805.533 237.187 772.357 246.418 739.29 255.615L739.274 255.619C706.304 264.788 673.441 273.927 631.821 316.098C590.199 358.271 581.494 391.253 572.761 424.34L572.759 424.349C564.001 457.531 555.213 490.819 513.311 533.275C471.41 575.73 438.234 584.961 405.167 594.158L405.151 594.162C372.181 603.331 339.318 612.471 297.711 654.629C256.103 696.787 247.402 729.761 238.673 762.842L238.669 762.858C229.914 796.038 221.126 829.325 179.225 871.781C137.323 914.237 104.154 923.462 71.0893 932.655L71.0805 932.658Z" fill="#A0A3BD"/>
<path fill-rule="evenodd" clip-rule="evenodd" d="M-236.848 639.111C-269.817 648.278 -302.682 657.416 -344.305 699.589L-345.379 698.529C-303.478 656.073 -270.308 646.848 -237.244 637.655L-237.235 637.653C-204.266 628.486 -171.401 619.348 -129.778 577.175C-88.1526 534.999 -79.4494 502.015 -70.7192 468.929L-70.7187 468.927C-61.9639 435.748 -53.1816 402.466 -11.2922 360.022C30.5972 317.579 63.7666 308.354 96.834 299.158L96.8356 299.157C129.81 289.987 162.683 280.845 204.308 238.669C245.931 196.495 254.636 163.513 263.369 130.426L263.371 130.417C272.129 97.2351 280.917 63.9473 322.818 21.4916C364.72 -20.9641 397.889 -30.1892 430.957 -39.3854L430.958 -39.3858C463.933 -48.5562 496.806 -57.6982 538.443 -99.8867C580.081 -142.075 588.784 -175.059 597.514 -208.145L597.515 -208.147C606.27 -241.326 615.052 -274.608 656.953 -317.064L658.027 -316.004C616.408 -273.833 607.707 -240.859 598.978 -207.778L598.974 -207.762C590.219 -174.582 581.431 -141.295 539.517 -98.8267C497.604 -56.3589 464.428 -47.1277 431.361 -37.9315L431.345 -37.9271C398.375 -28.7581 365.512 -19.6187 323.892 22.5516C282.27 64.7249 273.565 97.7069 264.832 130.794L264.83 130.803C256.072 163.985 247.284 197.273 205.382 239.729C163.481 282.184 130.306 291.415 97.2383 300.612L97.2224 300.616C64.2526 309.785 31.3894 318.924 -10.2182 361.082C-51.8258 403.241 -60.5265 436.215 -69.2554 469.296L-69.2597 469.312C-78.0145 502.492 -86.8028 535.779 -128.704 578.235C-170.606 620.691 -203.775 629.916 -236.839 639.109L-236.848 639.111Z" fill="#A0A3BD"/>
<path fill-rule="evenodd" clip-rule="evenodd" d="M368.67 1235.01C335.701 1244.18 302.836 1253.32 261.214 1295.49L260.14 1294.43C302.041 1251.98 335.21 1242.75 368.275 1233.56L368.284 1233.56C401.253 1224.39 434.118 1215.25 475.74 1173.08C517.366 1130.9 526.069 1097.92 534.799 1064.83L534.8 1064.83C543.555 1031.65 552.337 998.37 594.226 955.926C636.116 913.482 669.285 904.257 702.353 895.061L702.354 895.061C735.329 885.89 768.201 876.748 809.827 834.572C851.45 792.399 860.155 759.417 868.887 726.33L868.89 726.321C877.647 693.139 886.436 659.851 928.337 617.395C970.238 574.939 1003.41 565.714 1036.48 556.518L1036.48 556.518C1069.45 547.347 1102.32 538.205 1143.96 496.017C1185.6 453.828 1194.3 420.845 1203.03 387.759L1203.03 387.757C1211.79 354.577 1220.57 321.296 1262.47 278.84L1263.55 279.9C1221.93 322.07 1213.23 355.045 1204.5 388.126L1204.49 388.142C1195.74 421.321 1186.95 454.609 1145.04 497.077C1103.12 539.545 1069.95 548.776 1036.88 557.972L1036.86 557.976C1003.89 567.146 971.031 576.285 929.411 618.455C887.788 660.628 879.083 693.611 870.351 726.697L870.349 726.706C861.591 759.889 852.802 793.176 810.901 835.632C769 878.088 735.824 887.319 702.757 896.515L702.741 896.52C669.771 905.689 636.908 914.828 595.3 956.986C553.693 999.144 544.992 1032.12 536.263 1065.2L536.259 1065.22C527.504 1098.4 518.716 1131.68 476.814 1174.14C434.913 1216.59 401.744 1225.82 368.679 1235.01L368.67 1235.01Z" fill="#A0A3BD"/>
<path fill-rule="evenodd" clip-rule="evenodd" d="M-388.816 491.996C-421.785 501.162 -454.65 510.3 -496.273 552.473L-497.347 551.413C-455.445 508.958 -422.276 499.733 -389.211 490.539L-389.203 490.537C-356.234 481.37 -323.369 472.233 -281.746 430.059C-240.12 387.883 -231.417 354.899 -222.687 321.813L-222.686 321.811C-213.932 288.632 -205.149 255.35 -163.26 212.907C-121.371 170.463 -88.2011 161.238 -55.1338 152.042L-55.1322 152.042C-22.1576 142.871 10.7151 133.729 52.3407 91.5528C93.9634 49.3795 102.668 16.3973 111.401 -16.6896L111.403 -16.6982C120.161 -49.8806 128.949 -83.1684 170.851 -125.624C212.752 -168.08 245.922 -177.305 278.989 -186.501L278.991 -186.502C311.965 -195.672 344.838 -204.814 386.475 -247.002C428.113 -289.191 436.816 -322.175 445.546 -355.261L445.547 -355.263C454.302 -388.442 463.084 -421.724 504.985 -464.179L506.059 -463.119C464.44 -420.949 455.739 -387.975 447.01 -354.893L447.006 -354.878C438.251 -321.698 429.463 -288.41 387.549 -245.942C345.636 -203.475 312.461 -194.243 279.393 -185.047L279.377 -185.043C246.408 -175.874 213.544 -166.734 171.925 -124.564C130.302 -82.3909 121.597 -49.4088 112.865 -16.322L112.862 -16.3131C104.104 16.8692 95.3161 50.1571 53.4147 92.6128C11.5133 135.068 -21.6621 144.3 -54.7295 153.496L-54.7454 153.5C-87.7151 162.669 -120.578 171.809 -162.186 213.967C-203.794 256.125 -212.494 289.099 -221.223 322.18L-221.227 322.196C-229.982 355.376 -238.771 388.664 -280.672 431.119C-322.573 473.575 -355.743 482.8 -388.807 491.993L-388.816 491.996Z" fill="#A0A3BD"/>
<path fill-rule="evenodd" clip-rule="evenodd" d="M217.911 1088.91C184.941 1098.07 152.077 1107.21 110.454 1149.38L109.38 1148.32C151.281 1105.87 184.451 1096.64 217.515 1087.45L217.524 1087.45C250.493 1078.28 283.358 1069.14 324.981 1026.97C366.606 984.793 375.309 951.809 384.04 918.723L384.04 918.721C392.795 885.542 401.577 852.26 443.467 809.816C485.356 767.373 518.525 758.148 551.593 748.952L551.594 748.951C584.569 739.781 617.442 730.639 659.067 688.462C700.69 646.289 709.395 613.307 718.128 580.22L718.13 580.211C726.888 547.029 735.676 513.741 777.577 471.286C819.479 428.83 852.648 419.605 885.716 410.409L885.717 410.408C918.692 401.238 951.564 392.096 993.202 349.907C1034.84 307.719 1043.54 274.735 1052.27 241.649L1052.27 241.647C1061.03 208.468 1069.81 175.186 1111.71 132.73L1112.79 133.79C1071.17 175.961 1062.47 208.935 1053.74 242.016L1053.73 242.032C1044.98 275.211 1036.19 308.499 994.276 350.967C952.363 393.435 919.187 402.666 886.12 411.862L886.104 411.867C853.134 421.036 820.271 430.175 778.651 472.346C737.029 514.519 728.324 547.501 719.591 580.588L719.589 580.597C710.831 613.779 702.043 647.067 660.141 689.522C618.24 731.978 585.065 741.209 551.997 750.406L551.981 750.41C519.011 759.579 486.148 768.718 444.541 810.876C402.933 853.034 394.232 886.009 385.503 919.09L385.499 919.106C376.744 952.285 367.956 985.573 326.055 1028.03C284.153 1070.48 250.984 1079.71 217.919 1088.9L217.911 1088.91Z" fill="#A0A3BD"/>
<path fill-rule="evenodd" clip-rule="evenodd" d="M-478.618 386.863C-511.587 396.029 -544.452 405.167 -586.074 447.34L-587.148 446.28C-545.247 403.825 -512.078 394.6 -479.013 385.406L-479.004 385.404C-446.035 376.237 -413.17 367.1 -371.548 324.926C-329.922 282.75 -321.219 249.766 -312.489 216.68L-312.488 216.678C-303.733 183.499 -294.951 150.217 -253.062 107.774C-211.172 65.3301 -178.003 56.1051 -144.936 46.9089L-144.934 46.9084C-111.959 37.7381 -79.0867 28.5961 -37.4611 -13.5803C4.1616 -55.7536 12.8666 -88.7358 21.5993 -121.823L21.6015 -121.831C30.3593 -155.014 39.1476 -188.301 81.049 -230.757C122.95 -273.213 156.12 -282.438 189.187 -291.634L189.189 -291.635C222.163 -300.805 255.036 -309.947 296.674 -352.135C338.311 -394.324 347.014 -427.308 355.745 -460.394L355.745 -460.396C364.5 -493.575 373.282 -526.857 415.184 -569.312L416.258 -568.252C374.638 -526.082 365.937 -493.108 357.208 -460.026L357.204 -460.011C348.449 -426.831 339.661 -393.543 297.748 -351.076C255.834 -308.608 222.659 -299.376 189.591 -290.18L189.576 -290.176C156.606 -281.007 123.743 -271.867 82.123 -229.697C40.5004 -187.524 31.7954 -154.542 23.0628 -121.455L23.0604 -121.446C14.3027 -88.2638 5.51433 -54.976 -36.387 -12.5203C-78.2884 29.9354 -111.464 39.1666 -144.531 48.3628L-144.547 48.3672C-177.517 57.5362 -210.38 66.6756 -251.988 108.834C-293.595 150.992 -302.296 183.966 -311.025 217.047L-311.029 217.063C-319.784 250.243 -328.572 283.531 -370.474 325.986C-412.375 368.442 -445.545 377.667 -478.609 386.86L-478.618 386.863Z" fill="#A0A3BD"/>
<path fill-rule="evenodd" clip-rule="evenodd" d="M128.109 983.771C95.1397 992.938 62.2748 1002.08 20.6521 1044.25L19.5781 1043.19C61.4795 1000.73 94.6489 991.508 127.713 982.315L127.722 982.313C160.691 973.146 193.556 964.008 235.179 921.835C276.804 879.659 285.508 846.675 294.238 813.589L294.238 813.587C302.993 780.408 311.775 747.126 353.665 704.682C395.554 662.239 428.724 653.014 461.791 643.818L461.793 643.817C494.767 634.647 527.64 625.505 569.266 583.328C610.888 541.155 619.593 508.173 628.326 475.086L628.328 475.077C637.086 441.895 645.874 408.607 687.776 366.152C729.677 323.696 762.846 314.471 795.914 305.275L795.915 305.274C828.89 296.104 861.763 286.962 903.4 244.773C945.038 202.585 953.741 169.601 962.471 136.515L962.472 136.513C971.227 103.334 980.009 70.052 1021.91 27.5963L1022.98 28.6563C981.365 70.8265 972.664 103.801 963.935 136.882L963.931 136.898C955.176 170.077 946.388 203.365 904.474 245.833C862.561 288.301 829.385 297.532 796.318 306.728L796.302 306.733C763.332 315.902 730.469 325.041 688.85 367.212C647.227 409.385 638.522 442.367 629.789 475.454L629.787 475.463C621.029 508.645 612.241 541.933 570.34 584.388C528.438 626.844 495.263 636.075 462.195 645.271L462.179 645.276C429.21 654.445 396.346 663.584 354.739 705.742C313.131 747.9 304.431 780.875 295.702 813.956L295.697 813.972C286.943 847.151 278.154 880.439 236.253 922.895C194.351 965.351 161.182 974.576 128.118 983.769L128.109 983.771Z" fill="#A0A3BD"/>
<path fill-rule="evenodd" clip-rule="evenodd" d="M-179.821 680.265C-212.79 689.432 -245.655 698.57 -287.278 740.743L-288.352 739.683C-246.45 697.227 -213.281 688.002 -180.216 678.809L-180.208 678.807C-147.238 669.64 -114.373 660.502 -72.7509 618.329C-31.1252 576.153 -22.422 543.169 -13.6918 510.083L-13.6914 510.081C-4.93658 476.902 3.84576 443.62 45.7351 401.177C87.6245 358.733 120.794 349.508 153.861 340.312L153.863 340.311C186.837 331.141 219.71 321.999 261.336 279.823C302.958 237.649 311.663 204.667 320.396 171.58L320.398 171.572C329.156 138.389 337.944 105.101 379.846 62.6457C421.747 20.1899 454.917 10.9649 487.984 1.76868L487.986 1.76826C520.96 -7.40214 553.833 -16.5441 595.471 -58.7327C637.108 -100.921 645.811 -133.905 654.542 -166.991L654.542 -166.993C663.297 -200.172 672.079 -233.454 713.981 -275.91L715.055 -274.85C673.435 -232.679 664.734 -199.705 656.005 -166.624L656.001 -166.608C647.246 -133.428 638.458 -100.141 596.545 -57.6727C554.631 -15.2048 521.456 -5.97366 488.388 3.22259L488.373 3.22698C455.403 12.396 422.54 21.5353 380.92 63.7056C339.297 105.879 330.592 138.861 321.86 171.948L321.857 171.957C313.1 205.139 304.311 238.427 262.41 280.883C220.508 323.338 187.333 332.569 154.266 341.766L154.25 341.77C121.28 350.939 88.4168 360.078 46.8092 402.237C5.20154 444.395 -3.49916 477.369 -12.2281 510.45L-12.2323 510.466C-20.9872 543.646 -29.7755 576.933 -71.6769 619.389C-113.578 661.845 -146.748 671.07 -179.812 680.263L-179.821 680.265Z" fill="#A0A3BD"/>
<path fill-rule="evenodd" clip-rule="evenodd" d="M425.699 1286.13C392.73 1295.3 359.865 1304.43 318.242 1346.61L317.168 1345.55C359.069 1303.09 392.239 1293.87 425.303 1284.67L425.312 1284.67C458.281 1275.5 491.146 1266.37 532.769 1224.19C574.394 1182.02 583.098 1149.03 591.828 1115.95L591.828 1115.94C600.583 1082.77 609.365 1049.48 651.255 1007.04C693.144 964.596 726.314 955.371 759.381 946.175L759.382 946.175C792.357 937.004 825.23 927.862 866.855 885.686C908.478 843.513 917.183 810.53 925.916 777.443L925.918 777.435C934.676 744.252 943.464 710.965 985.365 668.509C1027.27 626.053 1060.44 616.828 1093.5 607.632L1093.51 607.632C1126.48 598.461 1159.35 589.319 1200.99 547.131C1242.63 504.942 1251.33 471.958 1260.06 438.872L1260.06 438.87C1268.82 405.691 1277.6 372.409 1319.5 329.954L1320.57 331.014C1278.95 373.184 1270.25 406.158 1261.52 439.24L1261.52 439.256C1252.77 472.435 1243.98 505.723 1202.06 548.191C1160.15 590.658 1126.98 599.89 1093.91 609.086L1093.89 609.09C1060.92 618.259 1028.06 627.399 986.439 669.569C944.817 711.742 936.112 744.724 927.379 777.811L927.377 777.82C918.619 811.002 909.831 844.29 867.929 886.746C826.028 929.202 792.853 938.433 759.785 947.629L759.769 947.633C726.8 956.802 693.936 965.942 652.329 1008.1C610.721 1050.26 602.02 1083.23 593.291 1116.31L593.287 1116.33C584.532 1149.51 575.744 1182.8 533.843 1225.25C491.941 1267.71 458.772 1276.93 425.707 1286.13L425.699 1286.13Z" fill="#A0A3BD"/>
<path fill-rule="evenodd" clip-rule="evenodd" d="M-331.788 543.111C-364.757 552.277 -397.622 561.415 -439.244 603.588L-440.318 602.528C-398.417 560.073 -365.248 550.848 -332.183 541.654L-332.174 541.652C-299.205 532.485 -266.34 523.348 -224.718 481.174C-183.092 438.998 -174.389 406.014 -165.659 372.928L-165.658 372.926C-156.903 339.747 -148.121 306.465 -106.232 264.022C-64.3423 221.578 -31.1728 212.353 1.89453 203.157L1.89614 203.156C34.8707 193.986 67.7434 184.844 109.369 142.668C150.992 100.494 159.697 67.5122 168.429 34.4254L168.432 34.4168C177.189 1.23437 185.978 -32.0535 227.879 -74.5091C269.78 -116.965 302.95 -126.19 336.017 -135.386L336.019 -135.387C368.993 -144.557 401.866 -153.699 443.504 -195.887C485.141 -238.076 493.845 -271.06 502.575 -304.146L502.575 -304.148C511.33 -337.327 520.112 -370.609 562.014 -413.064L563.088 -412.004C521.468 -369.834 512.767 -336.86 504.038 -303.778L504.034 -303.763C495.28 -270.583 486.491 -237.295 444.578 -194.827C402.664 -152.36 369.489 -143.128 336.421 -133.932L336.406 -133.928C303.436 -124.759 270.573 -115.619 228.953 -73.4491C187.33 -31.2759 178.625 1.70621 169.893 34.793L169.891 34.8019C161.133 67.9842 152.344 101.272 110.443 143.728C68.5417 186.183 35.3663 195.415 2.29881 204.611L2.28296 204.615C-30.6868 213.784 -63.55 222.924 -105.158 265.082C-146.765 307.24 -155.466 340.214 -164.195 373.295L-164.199 373.311C-172.954 406.491 -181.742 439.779 -223.644 482.234C-265.545 524.69 -298.714 533.915 -331.779 543.108L-331.788 543.111Z" fill="#A0A3BD"/>
<path fill-rule="evenodd" clip-rule="evenodd" d="M273.732 1139.01C240.763 1148.18 207.898 1157.32 166.275 1199.49L165.201 1198.43C207.103 1155.97 240.272 1146.75 273.336 1137.56L273.345 1137.55C306.314 1128.39 339.179 1119.25 380.802 1077.08C422.427 1034.9 431.131 1001.92 439.861 968.83L439.861 968.829C448.616 935.649 457.398 902.368 499.288 859.924C541.177 817.481 574.347 808.255 607.414 799.059L607.416 799.059C640.39 789.888 673.263 780.746 714.889 738.57C756.511 696.397 765.216 663.415 773.949 630.328L773.951 630.319C782.709 597.137 791.497 563.849 833.399 521.393C875.3 478.938 908.469 469.712 941.537 460.516L941.538 460.516C974.513 451.345 1007.39 442.203 1049.02 400.015C1090.66 357.827 1099.36 324.843 1108.09 291.757L1108.09 291.755C1116.85 258.575 1125.63 225.294 1167.53 182.838L1168.61 183.898C1126.99 226.068 1118.29 259.043 1109.56 292.124L1109.55 292.14C1100.8 325.319 1092.01 358.607 1050.1 401.075C1008.18 443.543 975.009 452.774 941.941 461.97L941.925 461.975C908.955 471.144 876.092 480.283 834.473 522.453C792.85 564.626 784.145 597.609 775.412 630.695L775.41 630.704C766.652 663.887 757.864 697.174 715.963 739.63C674.061 782.086 640.886 791.317 607.818 800.513L607.802 800.518C574.833 809.687 541.969 818.826 500.362 860.984C458.754 903.142 450.054 936.116 441.325 969.198L441.32 969.214C432.566 1002.39 423.777 1035.68 381.876 1078.14C339.974 1120.59 306.805 1129.82 273.741 1139.01L273.732 1139.01Z" fill="#A0A3BD"/>
<path fill-rule="evenodd" clip-rule="evenodd" d="M-32.9898 836.514C-65.9589 845.68 -98.8239 854.818 -140.446 896.991L-141.521 895.931C-99.6191 853.475 -66.4497 844.25 -33.3853 835.057L-33.3765 835.055C-0.407384 825.888 32.4576 816.75 74.0802 774.577C115.706 732.401 124.409 699.417 133.139 666.331L133.14 666.329C141.894 633.15 150.677 599.868 192.566 557.425C234.456 514.981 267.625 505.756 300.692 496.56L300.694 496.559C333.669 487.389 366.541 478.247 408.167 436.071C449.79 393.897 458.495 360.915 467.227 327.828L467.229 327.82C475.987 294.637 484.776 261.349 526.677 218.894C568.578 176.438 601.748 167.213 634.815 158.017L634.817 158.016C667.791 148.846 700.664 139.704 742.302 97.5154C783.939 55.327 792.642 22.3432 801.373 -10.7428L801.373 -10.7448C810.128 -43.9241 818.91 -77.2058 860.812 -119.662L861.886 -118.602C820.266 -76.4313 811.565 -43.4569 802.836 -10.3755L802.832 -10.3597C794.077 22.8196 785.289 56.1075 743.376 98.5754C701.462 141.043 668.287 150.274 635.219 159.471L635.204 159.475C602.234 168.644 569.371 177.783 527.751 219.954C486.128 262.127 477.423 295.109 468.691 328.196L468.688 328.205C459.931 361.387 451.142 394.675 409.241 437.131C367.34 479.586 334.164 488.817 301.097 498.014L301.081 498.018C268.111 507.187 235.248 516.327 193.64 558.485C152.033 600.643 143.332 633.617 134.603 666.698L134.599 666.714C125.844 699.894 117.056 733.181 75.1542 775.637C33.2528 818.093 0.0833812 827.318 -32.981 836.511L-32.9898 836.514Z" fill="#A0A3BD"/>
<path fill-rule="evenodd" clip-rule="evenodd" d="M572.529 1442.38C539.56 1451.54 506.695 1460.68 465.072 1502.85L463.998 1501.79C505.899 1459.34 539.069 1450.11 572.133 1440.92L572.142 1440.92C605.111 1431.75 637.976 1422.61 679.599 1380.44C721.224 1338.26 729.928 1305.28 738.658 1272.19L738.658 1272.19C747.413 1239.01 756.195 1205.73 798.085 1163.29C839.974 1120.84 873.144 1111.62 906.211 1102.42L906.213 1102.42C939.187 1093.25 972.06 1084.11 1013.69 1041.93C1055.31 999.76 1064.01 966.778 1072.75 933.691L1072.75 933.683C1081.51 900.5 1090.29 867.212 1132.2 824.757C1174.1 782.301 1207.27 773.076 1240.33 763.88L1240.34 763.879C1273.31 754.709 1306.18 745.567 1347.82 703.378C1389.46 661.19 1398.16 628.206 1406.89 595.12L1406.89 595.118C1415.65 561.939 1424.43 528.657 1466.33 486.202L1467.4 487.261C1425.78 529.432 1417.08 562.406 1408.35 595.488L1408.35 595.503C1399.6 628.683 1390.81 661.971 1348.89 704.438C1306.98 746.906 1273.81 756.137 1240.74 765.334L1240.72 765.338C1207.75 774.507 1174.89 783.646 1133.27 825.817C1091.65 867.99 1082.94 900.972 1074.21 934.059L1074.21 934.068C1065.45 967.25 1056.66 1000.54 1014.76 1042.99C972.858 1085.45 939.683 1094.68 906.615 1103.88L906.599 1103.88C873.63 1113.05 840.766 1122.19 799.159 1164.35C757.551 1206.51 748.85 1239.48 740.122 1272.56L740.117 1272.58C731.362 1305.76 722.574 1339.04 680.673 1381.5C638.771 1423.96 605.602 1433.18 572.538 1442.37L572.529 1442.38Z" fill="#A0A3BD"/>
</svg>
