<svg width="80" height="80" viewBox="0 0 80 80" fill="none" xmlns="http://www.w3.org/2000/svg">
<path d="M13.1664 8.3335C17.8947 13.3668 20.2597 19.9002 20.2597 27.9418C20.2597 40.0002 9.99802 49.2302 8.28136 55.8335C7.13636 60.2352 6.59802 65.5135 6.66469 71.6668M65.4264 8.3335C60.6964 13.3668 58.3314 19.9002 58.3314 27.9418C58.333 40.0002 68.593 49.2302 70.3097 55.8335C71.4547 60.2352 71.993 65.5135 71.9264 71.6668" stroke="black" stroke-width="4" stroke-linecap="round"/>
<path d="M10.4062 51.395C21.2812 58.2784 31.1562 61.72 40.0346 61.72C48.9113 61.72 58.2996 58.2784 68.1979 51.395" stroke="black" stroke-width="4" stroke-linecap="round"/>
<path d="M39.9997 51.6668C41.1047 51.6668 42.1646 51.2278 42.946 50.4464C43.7274 49.665 44.1663 48.6052 44.1663 47.5002C44.1663 46.3951 43.7274 45.3353 42.946 44.5539C42.1646 43.7725 41.1047 43.3335 39.9997 43.3335C38.8946 43.3335 37.8348 43.7725 37.0534 44.5539C36.272 45.3353 35.833 46.3951 35.833 47.5002C35.833 48.6052 36.272 49.665 37.0534 50.4464C37.8348 51.2278 38.8946 51.6668 39.9997 51.6668Z" fill="black"/>
</svg>
