<svg width="80" height="80" viewBox="0 0 80 80" fill="none" xmlns="http://www.w3.org/2000/svg">
<path d="M24.9998 34.353C22.6265 44.603 35.8215 47.2114 32.7065 54.433C29.5898 61.653 22.6148 60.2097 23.3932 67.4297C24.1732 74.6514 33.4032 74.753 41.8065 70.403C58.6115 61.7014 62.1182 42.6947 54.5132 34.353C45.1665 24.103 27.3732 24.103 24.9998 34.353Z" stroke="black" stroke-width="4"/>
<path d="M54.3444 26.3885C55.7546 27.5719 58.3368 26.8163 60.1118 24.7009C61.8868 22.5855 62.1825 19.9114 60.7722 18.7281C59.362 17.5447 56.7798 18.3003 55.0048 20.4157C53.2298 22.531 52.9341 25.2052 54.3444 26.3885Z" fill="black"/>
<path d="M46.8544 22.2037C48.5229 22.9818 50.8215 21.5836 51.9885 19.0809C53.1556 16.5782 52.7491 13.9187 51.0806 13.1407C49.4121 12.3626 47.1135 13.7608 45.9465 16.2635C44.7795 18.7662 45.1859 21.4257 46.8544 22.2037Z" fill="black"/>
<path d="M38.4456 20.9777C40.2764 21.1702 41.9946 19.0998 42.2833 16.3535C42.5719 13.6073 41.3217 11.2249 39.4909 11.0325C37.66 10.8401 35.9418 12.9104 35.6531 15.6567C35.3645 18.403 36.6147 20.7853 38.4456 20.9777Z" fill="black"/>
<path d="M25.6132 19.5979C28.2081 18.6535 29.2908 15.0831 28.0316 11.6232C26.7723 8.16337 23.6478 6.12425 21.053 7.06871C18.4581 8.01317 17.3753 11.5836 18.6346 15.0434C19.8939 18.5033 23.0183 20.5424 25.6132 19.5979Z" stroke="black" stroke-width="4"/>
<path d="M60.3943 32.4403C61.5776 33.8506 64.2518 33.5549 66.3671 31.7799C68.4825 30.0049 69.2381 27.4227 68.0547 26.0125C66.8714 24.6022 64.1973 24.8979 62.0819 26.6729C59.9665 28.4479 59.211 31.0301 60.3943 32.4403Z" fill="black"/>
</svg>
