<svg width="80" height="80" viewBox="0 0 80 80" fill="none" xmlns="http://www.w3.org/2000/svg">
<path d="M54.9997 6.6665V19.1982C67.1863 26.1882 72.6897 35.4898 71.5097 47.1015C70.3297 58.7132 64.8263 67.4565 54.9997 73.3332M22.953 6.6665C19.3897 7.28317 16.8247 9.36984 15.2597 12.9298C12.9097 18.2665 8.33301 36.6048 8.33301 39.5432C8.33301 42.4798 14.2797 50.3915 28.4197 62.3932C34.9713 67.9532 38.8447 67.6698 40.9413 63.9398C43.038 60.2098 40.263 57.8165 36.7497 55.0615C30.3113 50.0132 21.8363 42.0248 21.8363 38.5182C21.8363 36.1798 24.0313 29.0565 28.4197 17.1448" stroke="black" stroke-width="4" stroke-linecap="round" stroke-linejoin="round"/>
<path d="M13.668 48.2331C14.5527 56.6778 16.1132 65.0379 18.3346 73.2331M54.9996 33.2397C57.578 34.9531 59.2446 37.1814 59.9996 39.9264C60.7546 42.6731 60.9746 45.1764 60.6596 47.4364" stroke="black" stroke-width="4" stroke-linecap="round"/>
</svg>
